<?xml version="1.0" encoding="utf-8"?>
<!-- Generator: Adobe Illustrator 27.2.0, SVG Export Plug-In . SVG Version: 6.00 Build 0)  -->
<svg version="1.1" id="_レイヤー_2" xmlns="http://www.w3.org/2000/svg" xmlns:xlink="http://www.w3.org/1999/xlink" x="0px"
	 y="0px" viewBox="0 0 60 154" style="enable-background:new 0 0 60 154;" xml:space="preserve" width="60" height="154">
<style type="text/css">
	.st0{fill:#323232;}
</style>
<path class="st0" d="M24.5,114c0.2,0,0.4-0.2,0.5-0.4c0.1-0.1,0.1-0.2,0.2-0.4c0.1-0.3,0.2-0.7,0.1-1c-0.2-0.6-0.5-0.8-1.1-0.7
	c-0.4,0-0.6,0.1-0.9,0.4c-0.3,0.4-0.3,0.8-0.2,1.2C23.3,113.7,23.9,114.1,24.5,114z M26.3,134.6c-0.1-0.8-0.2-1.6-0.3-2.3
	c-0.2-1.4-0.4-2.7-0.5-4.1c-0.2-1.2-0.3-2.4-0.5-3.6c-0.1-1.1-0.2-2.3-0.4-3.4c-0.2-1.5-0.2-3.1-0.1-4.6c0.1-0.5-0.1-0.7-0.7-0.5
	c0,0.2-0.1,0.5-0.1,0.7c0,1.1-0.1,2.3,0,3.4c0.1,1.5,0.4,2.9,0.6,4.4c0.1,1.1,0.3,2.1,0.4,3.2c0.2,1.7,0.5,3.5,0.7,5.2
	c0.1,1.2,0.3,2.3,0.4,3.5c0.1,0.9,0.1,1.8,0.2,2.8c0,0.3,0.2,0.5,0.5,0.6c0.2,0,0.3-0.1,0.3-0.3c-0.1-0.4-0.1-0.8-0.2-1.2
	C26.5,137,26.4,135.8,26.3,134.6z M48.5,105.2c-0.3,0-0.6,0-0.8,0.4c-0.1,0.2-0.2,0.3-0.2,0.5c-0.2,1.1-0.6,2.2-1.1,3.3
	c0.2,0.1,0.3,0.2,0.4,0.2c0.2,0.1,0.4,0.1,0.5-0.1c0.3-0.4,0.6-0.9,0.8-1.3c0.3-0.5,0.5-1,0.8-1.5c0.2-0.3,0.3-0.6,0.2-1
	C49,105.4,48.9,105.2,48.5,105.2z M7.5,134.5c-0.2-1.8-0.7-3.6-1.3-5.3c0-0.1-0.1-0.3-0.1-0.4c-0.2-0.7-0.3-1.3-0.5-2
	c-0.3-1.1-0.7-2.2-1.1-3.2c-0.3-1-0.6-1.9-1-2.9c-0.5-1.3-0.8-2.7-1-4.1c-0.1-0.9-0.2-1.9-0.3-2.8c-0.1-0.7-0.1-1.4,0.1-2.2
	c0-0.2,0.1-0.4,0.1-0.6c0.2-0.9,0.5-1.7,1.4-2.2c0,0,0,0,0.1-0.1c0.4-0.3,0.8-0.3,1.2,0.1c0.2,0.2,0.4,0.2,0.7,0.1
	c-0.1-0.1-0.1-0.3-0.2-0.3c-0.3-0.2-0.6-0.4-0.9-0.6c-0.5-0.3-1.1-0.3-1.6-0.2c-1.1,0.1-2,0.6-2.5,1.6c-0.2,0.4-0.3,0.9-0.4,1.3
	C0,111.6,0,112.4,0,113.2c0.1,1.4,0.5,2.7,0.9,4.1c0.2,0.7,0.5,1.5,0.7,2.2c0.3,1,0.5,2.1,1.1,3c0.1,0.1,0.1,0.2,0.2,0.3
	c0.6,1.5,1.2,3,1.8,4.5c0.3,0.7,0.5,1.5,0.8,2.3c0.1,0.2,0.1,0.4,0.1,0.6c0.2,1.5,0.3,3,0.4,4.5c0.1,1.1,0,2.2,0,3.4
	c-0.1,1.2-0.4,2.3-0.9,3.4c-0.2,0.4-0.4,0.9-0.7,1.3c-0.4,0.7-0.8,1.5-1.5,2c-0.7,0.6-1.4,1.1-2.2,1.4c-0.2,0.1-0.4,0.3-0.6,0.4
	c0.3,0.5,0.6,0.6,1,0.4c0.2-0.1,0.3-0.2,0.5-0.3c0.1-0.1,0.2-0.1,0.3-0.2c0.5-0.2,1-0.3,1.4-0.5c0.6-0.3,1.1-0.8,1.6-1.2
	c0.5-0.5,0.9-1.1,1.4-1.7c0.5-0.6,0.7-1.2,0.9-1.9c0.3-1.2,0.4-2.4,0.4-3.6c0-1-0.1-2-0.1-3C7.5,134.6,7.5,134.6,7.5,134.5z
	 M31.1,148.5c-0.1,0.6-0.3,1.1-0.4,1.7c-0.1,0.6-0.2,1.1-0.3,1.7c0,0-0.1,0-0.1,0c-0.1-0.2-0.1-0.3-0.2-0.5
	c-0.1-0.4-0.2-0.7-0.3-1.1c-0.2-0.7-0.5-1.4-0.7-2.2c-0.1-0.3-0.2-0.3-0.5-0.3c0,0.1,0,0.1,0,0.2c0.5,1.1,0.7,2.2,1,3.3
	c0.2,0.6,0.4,1.1,0.5,1.7c0.1,0.2,0.2,0.3,0.3,0.4c0.2,0.1,0.3,0,0.3-0.2c0-0.2,0-0.3,0-0.5c0.1-0.6,0.1-1.1,0.2-1.6
	c0.1-0.5,0.2-1,0.3-1.4c0-0.3,0.1-0.6,0.3-0.9C31.5,148.5,31.3,148.5,31.1,148.5z M17.3,119.6c0-0.4-0.1-0.9,0-1.3
	c0-0.8,0.1-1.7,0-2.5c0-0.2-0.1-0.5-0.1-0.7c0-0.6-0.1-1.3-0.5-1.8c-0.4-0.6-0.8-1.1-1.6-1.2c-0.2,0-0.3,0-0.5,0
	c-0.3-0.1-0.6,0.1-0.7,0.3c-0.3,0.4-0.7,0.8-0.8,1.4c-0.1,0.5-0.4,0.9-0.6,1.4c-0.1,0.3-0.2,0.6-0.3,0.8c-0.1,0.3-0.2,0.6-0.3,0.9
	c-0.1,0.3-0.2,0.6-0.3,0.9c-0.1,0.4-0.1,0.8-0.3,1.2c-0.4,1.3-0.5,2.7-0.7,4c-0.1,0.6-0.1,1.1,0,1.7c0.1,0.4,0,0.9,0,1.3
	c0,0,0,0,0,0c0,0.5,0.1,1.1,0.1,1.6c0.1,1.3,0.3,2.6,0.6,4c0.1,0.5,0.3,1,0.5,1.5c0.1,0.2,0.2,0.3,0.3,0.5c0.4,0.8,1.1,1.4,1.9,1.9
	c0.3,0.2,0.8,0.3,1.2,0.3c0.4,0,0.9,0,1.2-0.4c0.2-0.2,0.4-0.5,0.5-0.8c0.1-0.3,0.2-0.5,0.3-0.8c0-0.2,0.1-0.3,0.1-0.5
	c0-0.2,0-0.4,0-0.6c0-0.6,0-1.2,0-1.8c0-0.9,0-1.8,0-2.8c0-0.9,0.1-1.8,0.1-2.8c0.1-1,0-2.1,0.1-3.1c0-0.6,0.1-1.2,0-1.8
	c0-0.1,0-0.3,0-0.4C17.3,119.9,17.3,119.8,17.3,119.6z M16.6,123.5c0,0.6,0,1.1,0,1.7c0,0.9-0.1,1.8-0.1,2.6c0,0.8,0,1.5,0,2.3
	c0,0.9-0.1,1.9-0.2,2.8c-0.1,0.4-0.1,0.9-0.2,1.3c0,0.2-0.1,0.4-0.2,0.5c-0.5,0.2-0.8-0.1-1.1-0.3c-0.3-0.3-0.5-0.7-0.7-1.2
	c-0.3-1-0.5-2.1-0.7-3.2c-0.2-1-0.4-2-0.5-3c-0.1-1.3-0.2-2.5-0.2-3.8c0-1,0-2,0.1-2.9c0.1-1,0.3-2,0.5-3c0.2-1,0.5-2,0.8-2.9
	c0.2-0.5,0.4-1,0.6-1.5c0.2-0.5,0.6-0.4,1-0.1c0.4,0.3,0.6,0.7,0.7,1.2c0.1,0.4,0.1,0.7,0.1,1.1c0,0.4,0.1,0.7,0.1,1.1
	c0,0.7,0,1.4,0,2.1c0,0.9,0.1,1.8,0,2.8C16.7,121.9,16.6,122.7,16.6,123.5z M54.4,151.2c0-0.6,0-1.2,0-1.8c0-0.3,0-0.7,0-1
	c0-0.4,0-0.5-0.5-0.5c-1.1,2.2-1.4,3.2-1.9,5.1c0.1,0,0.1,0.1,0.2,0.2c0.2,0.1,0.3,0.1,0.4-0.2c0.1-0.4,0.2-0.8,0.3-1.2
	c0.1-0.3,0.2-0.4,0.5-0.4c0.1,0,0.1,0,0.2,0c0.3,0,0.4,0,0.5,0.4c0,0.2,0.1,0.4,0.1,0.6c0,0.2,0.1,0.4,0.1,0.6
	c0,0.4,0.1,0.4,0.6,0.6c0-0.1,0-0.3,0-0.4C54.6,152.6,54.5,151.9,54.4,151.2z M53.9,150.9c-0.2,0-0.4,0-0.7,0
	c0.1-0.6,0.4-1.1,0.6-1.7C54,149.6,54,150.3,53.9,150.9z M52.2,149c-0.2,0-0.2,0.1-0.3,0.3c-0.3,1-0.6,1.9-0.9,2.9
	c0,0.1-0.1,0.1-0.1,0.2c-0.1-0.2-0.2-0.3-0.3-0.5c-0.2-0.5-0.3-1-0.5-1.5c-0.1-0.4-0.2-0.4-0.6-0.3c-0.1,1-0.2,2-0.2,3.1
	c0.1,0.1,0.2,0.3,0.4,0.2c0.2-0.6,0.1-1.2,0.3-1.9c0.3,0.7,0.6,1.3,1.2,1.8c0.1-0.2,0.1-0.3,0.1-0.4c0-0.2,0.1-0.5,0.1-0.7
	c0.1-0.4,0.2-0.7,0.3-1c0.2-0.6,0.3-1.2,0.6-1.7C52.6,149.2,52.4,149,52.2,149z M56.4,150.3c0-0.4,0-0.8,0-1.2
	c0-0.3-0.1-0.4-0.5-0.4c0,0.1,0,0.2,0,0.3c0,0.5,0,1,0,1.5c0,0.8,0,1.7,0,2.5c0,0.1,0,0.2,0.2,0.3c0.1,0.1,0.2,0.2,0.3,0.1
	c0.1-0.1,0.1-0.2,0.1-0.3c0-0.4-0.1-0.7-0.1-1.1C56.3,151.5,56.4,150.9,56.4,150.3z M48.6,149.4c-0.2-0.3-0.6-0.3-0.8,0
	c-0.2,0.3-0.4,0.6-0.5,0.9c0,0.1-0.1,0.1-0.1,0.2c0.1-0.7-0.3-1.5-1.2-1.7c-0.1-0.4-0.2-0.4-0.6-0.3c0,0.3,0,0.5-0.2,0.7
	c0.3,0.4,0.3,1.2,0,1.6c0,0.1,0.1,0.3,0.1,0.4c0,0.5,0,1,0.1,1.4c0,0.1,0,0.2,0.1,0.3c0.1,0.1,0.2,0.2,0.4,0.2
	c0.2-0.1,0.1-0.2,0.1-0.4c0,0,0,0,0-0.1c-0.1-0.5-0.1-0.9-0.1-1.4c0.3,0,0.5,0,0.7-0.1c0.2-0.1,0.4-0.3,0.6-0.5c0,0.1,0,0.1,0,0.2
	c0,0.5,0.1,1,0.4,1.5c0.1,0.1,0.2,0.2,0.3,0.3c0.3,0.3,0.7,0.2,0.9-0.1c0.1-0.2,0.2-0.4,0.3-0.6C49.3,151.1,49.4,150.3,48.6,149.4
	C48.6,149.5,48.6,149.4,48.6,149.4z M45.8,150.9c0-0.5,0-0.9,0-1.3c0-0.1,0-0.3,0.2-0.3c0.2-0.1,0.3,0,0.4,0.1
	c0.1,0.1,0.2,0.3,0.2,0.5C46.7,150.4,46.3,150.9,45.8,150.9z M48.1,152.4c0,0-0.1,0-0.1,0.1c-0.3-0.3-0.4-0.7-0.5-1.1
	c0-0.5,0.2-1,0.5-1.5c0.2-0.2,0.5-0.2,0.5,0.1C48.9,150.9,48.7,151.7,48.1,152.4z M59,148.9c-0.4-0.3-0.9-0.2-1.2,0.2
	c-0.3,0.3-0.4,0.7-0.4,1.1c0.1,0.3,0.1,0.7,0.2,1c0.2,0.4,0.4,0.8,0.6,1.2c0.1,0.2,0.1,0.4,0,0.6c-0.1,0.3-0.3,0.5-0.6,0.6
	c0.2,0.4,0.2,0.5,0.8,0.3c0.1-0.3,0.2-0.6,0.3-0.9c0.1-0.2,0-0.4-0.1-0.6c-0.4-0.7-0.7-1.4-0.8-2.3c0-0.4,0.1-0.7,0.5-0.9
	c0.3-0.2,0.4-0.1,0.7,0.1c0.1,0.1,0.2,0.3,0.3,0.4c0.1,0.1,0.2,0.2,0.3,0.1C59.6,149.4,59.3,149.1,59,148.9z M59.6,109.7
	c-0.7-0.1-1.4-0.1-2-0.1c-0.3,0-0.7,0-1,0c-0.8,0-0.6,0.1-0.9,0.6c0,0,0,0.1,0,0.1c-0.2,0.8-0.4,1.5-0.5,2.3
	c-0.2,1.2-0.3,2.3-0.5,3.5c-0.1,0.8-0.2,1.7-0.3,2.5c-0.1,1.6-0.2,3.1-0.4,4.7c-0.1,0.8-0.1,1.6-0.2,2.4c-0.1,1-0.2,2-0.1,3
	c0,0.4,0,0.8,0,1.2c0,0.4,0,0.7,0,1.1c0,0.6,0.1,1.2,0.1,1.8c0,0.4,0,0.8,0,1.1c0,0.6,0.1,1.2,0.1,1.8c0,1,0,2,0,3
	c0,0.8,0.3,1.5,0.9,2.1c0.4,0.4,0.6,0.3,1,0.1c0.3-0.2,0.5-0.2,0.8-0.1c0.7,0.1,1.4,0.1,2.1,0.2c0,0,0.1,0,0.1,0
	c0.1-0.1,0.2-0.1,0.2-0.2c0-0.1-0.1-0.2-0.2-0.2c-0.1,0-0.2,0-0.3,0c-0.3,0-0.6,0-1,0c-0.5,0-0.9-0.1-1.4-0.3
	c-0.1-1-0.2-1.9-0.2-2.9c-0.1-0.8-0.1-1.6-0.1-2.5c0-1.6,0-3.2,0-4.7c0-0.5,0-1,0-1.5c0-0.5,0-0.9,0-1.4c0.2,0,0.3,0,0.4,0
	c0.4,0.1,0.9,0.1,1.3,0.3c0.2,0,0.3,0,0.4-0.1c-0.1-0.2-0.2-0.3-0.5-0.3c-0.6,0-1.2-0.2-1.7-0.4c0-0.3,0-0.5,0-0.7
	c0.1-0.9,0.1-1.8,0.2-2.6c0.1-1,0.2-1.9,0.3-2.8c0.1-0.6,0.2-1.1,0.2-1.7c0.1-1.4,0.1-2.8,0.2-4.2c0.1-1,0.1-2.1,0.2-3.1
	c0-0.5,0.1-1,0.3-1.4c0.6-0.1,1.7-0.1,2.7,0.1C60.1,109.9,60,109.7,59.6,109.7z M36.1,152.1c0-0.5,0-0.9,0-1.4c0-0.6,0-1.2,0-1.9
	c0-0.4-0.1-0.4-0.5-0.4c0,0.1,0,0.1,0,0.2c0,0.7,0,1.5,0,2.2c0,0.2,0,0.3-0.1,0.5c-0.1-0.2-0.2-0.3-0.3-0.4c-0.2-0.3-0.3-0.7-0.5-1
	c-0.2-0.2-0.2-0.5-0.2-0.7c0-0.2,0-0.3,0.1-0.5c0.1-0.4-0.1-0.5-0.5-0.4c-0.1,0.2,0.1,0.6-0.3,0.7c0,0.3,0.1,0.5,0.1,0.7
	c0,0.7-0.1,1.4-0.2,2.2c0,0.1,0,0.3,0,0.4c0,0.2,0.3,0.4,0.4,0.4c0.2,0,0.1-0.2,0.1-0.4c0-0.5,0-1,0.1-1.5c0-0.1,0-0.1,0.1-0.3
	c0.3,0.5,0.6,1,0.8,1.4c0.1,0.2,0.2,0.5,0.3,0.8c0,0,0,0.1,0,0.1c0.1,0.1,0.3,0.2,0.4,0.1c0.1-0.1,0.2-0.3,0.1-0.5
	C36.2,152.3,36.1,152.2,36.1,152.1z M33,148.5c-0.1,0-0.2,0-0.3,0c-0.1,0.5-0.1,0.9-0.2,1.3c-0.1,1-0.1,1.9-0.2,2.9
	c0,0.2,0.1,0.4,0.3,0.4c0.2,0.1,0.3,0,0.3-0.2c0-0.1,0-0.3,0-0.4c0-0.6,0-1.2,0.1-1.8c0-0.6,0.1-1.2,0.2-1.8
	C33.2,148.6,33.2,148.5,33,148.5z M40.8,142.4c0,0.2,0.1,0.3,0.2,0.3c0.2,0,0.4,0.1,0.4-0.1c-0.1-0.3-0.2-0.5-0.2-0.8
	c-0.2-0.6-0.3-1.2-0.5-1.8c-0.2-0.8-0.6-1.5-0.8-2.3c-0.4-1.4-0.8-2.7-1.3-4c-0.6-1.6-1.2-3.2-1.8-4.8c-0.4-1.1-0.9-2.2-1.4-3.3
	c-0.2-0.6-0.5-1.1-0.7-1.7c-0.5-1.7-0.8-3.4-1.2-5.1c-0.1-0.5-0.1-1.1-0.2-1.6c0-0.5,0.1-0.9,0.4-1.3c0.6-0.6,1.2-1.3,1.7-1.9
	c0.3-0.3,0.5-0.6,0.7-0.9c0.4-0.4,0.7-0.9,1-1.5c0.3-0.7,0.3-1.5-0.2-2.2c-0.2-0.4-0.5-0.7-0.8-1c-0.2-0.2-0.4-0.4-0.6-0.4
	c-0.4-0.2-0.9-0.3-1.3-0.4c-0.3,0.3-0.5,0.7-0.6,1.1c-0.1,0.5-0.3,0.9-0.4,1.3c-0.2,0.5-0.4,0.9-0.4,1.4c-0.1,0.9-0.4,1.7-0.6,2.6
	c-0.2,0.7-0.3,1.4-0.4,2.1c-0.1,0.7-0.2,1.5-0.3,2.2c-0.1,0.6-0.2,1.1-0.3,1.7c-0.1,0.8-0.2,1.7-0.4,2.5c-0.1,0.7-0.2,1.3-0.3,2
	c-0.1,0.6-0.1,1.2-0.1,1.9c-0.1,1.1-0.2,2.1-0.2,3.2c-0.1,1.3-0.2,2.7-0.1,4c0,0.6,0,1.1,0,1.7c0,0.9,0.1,1.8,0.1,2.7
	c0,1.4,0.2,2.7,0.4,4.1c0,0.3,0.1,0.5,0.2,0.8c0.2,0,0.4,0.1,0.6,0c0.1,0,0.2-0.2,0.2-0.2c0-0.3-0.1-0.7-0.1-1
	c-0.1-0.5-0.2-1.1-0.3-1.6c0-0.4,0.2-0.9,0-1.3c0,0,0-0.1,0-0.1c0-0.5,0-1,0.1-1.5c0-0.1,0-0.3,0.1-0.4c0-0.2,0.1-0.5,0.1-0.7
	c-0.1-0.4,0-0.8,0-1.1c0.1-0.5,0.1-1,0.2-1.5c0-0.2,0.1-0.4,0.1-0.6c0.1-0.8,0.2-1.6,0.2-2.4c0-0.5-0.1-1-0.1-1.4
	c0-0.7-0.1-1.5,0.1-2.2c0.1-0.5,0.2-0.9,0.2-1.4c0.1-0.9,0.2-1.9,0.3-2.8c0-0.5,0.1-1,0.1-1.5c0-0.4,0.1-0.8,0.2-1.2
	c0,0,0.1,0,0.1,0c0,0.2,0.1,0.4,0.1,0.7c0.2,1.5,0.7,3,1.2,4.4c0.2,0.6,0.6,1.2,0.8,1.9c0.5,1.2,1,2.5,1.4,3.7
	c0.5,1.3,1,2.6,1.4,3.9c0.2,0.5,0.4,1,0.6,1.6c0.5,1.4,1,2.8,1.4,4.3C40.5,141,40.8,141.7,40.8,142.4z M35.4,109.2
	c0.9,0.4,1.2,1,0.9,1.9c-0.3,0.9-0.8,1.7-1.5,2.4c-0.1,0.1-0.1,0.2-0.1,0.2c-0.2,0.3-0.4,0.7-0.7,0.8
	C33.6,113.8,34.4,109.8,35.4,109.2z M46.1,138.7c0.1,0.7,0.4,1.3,0.8,1.9c0.4,0.6,0.6,0.6,1.3,0.4c0.1,0,0.1,0,0.2-0.1
	c0.1-0.1,0.2-0.1,0.3-0.3c0.7,0.1,1.5,0.2,2.2,0.2c0-0.3-0.2-0.4-0.4-0.4c-0.8,0.1-1.5-0.1-2.3-0.3c-0.1-0.6-0.3-1.2-0.4-1.8
	c-0.1-0.5-0.2-1-0.3-1.5c-0.2-0.9-0.3-1.7-0.5-2.6c0-0.2,0-0.4-0.1-0.6c-0.1-0.5-0.2-1.1-0.3-1.6c-0.1-1-0.2-2-0.4-3
	c0-0.2,0-0.4,0-0.6c0.3,0,0.5,0,0.8,0.1c0.3,0,0.5,0.1,0.8,0.1c0.1,0,0.2-0.1,0.2-0.1c0-0.1-0.1-0.2-0.2-0.3
	c-0.1-0.1-0.3-0.1-0.4-0.1c-0.3-0.1-0.7-0.1-1-0.2c-0.3,0-0.4-0.2-0.4-0.4c0-0.3,0-0.5,0-0.8c-0.1-1.1-0.3-2.2-0.3-3.3
	c-0.1-1.8-0.2-3.5-0.2-5.3c0.1-1.4,0-2.7,0-4.1c0-0.4,0.1-0.7,0.2-1.1c0-0.2,0.1-0.3,0.3-0.3c0.6-0.1,1.2-0.1,1.9-0.2
	c0.2,0,0.3,0,0.4-0.1c0.1-0.2,0-0.3-0.2-0.4c-0.1-0.1-0.3-0.2-0.5-0.1c-0.2,0.1-0.4,0.1-0.6,0.1c-0.6,0.1-1.3,0.1-1.9,0.2
	c-0.1,0-0.2,0-0.3,0.1c-0.1,0.5-0.3,1.1-0.4,1.6c-0.1,0.6-0.1,1.2-0.3,1.7c-0.1,0.7-0.2,1.3-0.1,2c0,0.6-0.1,1.2-0.1,1.8
	c0,1.1-0.1,2.2-0.1,3.2c0,1.2,0.2,2.3,0.3,3.5c0.1,0.8,0.2,1.6,0.3,2.3c0.1,1,0.2,1.9,0.3,2.9c0.2,1.2,0.4,2.4,0.6,3.6
	C45.7,136.2,45.9,137.5,46.1,138.7z M41.8,148.1c0,0.1,0,0.2,0,0.3c-0.1,0.9-0.1,1.9-0.3,2.8c-0.1,0.5-0.2,0.9-0.4,1.3
	c-0.1,0.2-0.1,0.4-0.4,0.4c-0.3,0-0.6,0.1-0.8-0.3c0-0.1-0.2-0.1-0.2-0.2c-0.1,0.1-0.2,0.1-0.3,0.3c0.1,0.1,0.2,0.2,0.3,0.3
	c0.3,0.2,0.6,0.3,1,0.3c0.5,0,0.8-0.1,0.9-0.6c0.2-0.7,0.4-1.3,0.5-2c0,0,0-0.1,0-0.1c0.1-0.7,0.1-1.4,0.2-2.1
	C42.4,148.1,42.3,148,41.8,148.1z M44.2,150.7c0-0.7-0.3-1.3-0.3-1.9c0-0.2-0.2-0.2-0.3-0.3c-0.1,0-0.2,0.1-0.3,0.2
	c-0.2,0.7-0.4,1.4-0.6,2.1c0,0.1-0.1,0.2-0.2,0.4c0,0.2,0.1,0.3,0.1,0.5c0,0.3-0.1,0.6-0.1,0.9c0,0.2,0.1,0.3,0.3,0.4
	c0.2,0.1,0.2,0,0.2-0.2c0-0.2,0-0.5,0-0.7c0-0.6,0.1-0.6,0.6-0.6c0.3,0,0.3,0.1,0.4,0.4c0,0.2,0,0.4,0.1,0.6
	c0.1,0.3,0.1,0.4,0.5,0.4c0-0.1,0-0.2,0-0.3C44.4,152,44.2,151.3,44.2,150.7z M43.1,151.1c0.1-0.5,0.2-1,0.4-1.5
	c0.1,0.5,0.2,1,0.2,1.5C43.5,151.1,43.3,151.1,43.1,151.1z M52.6,81.5c-0.4-0.1-0.9-0.2-1.3-0.3c-0.2-0.1-0.5,0-0.7-0.1
	c-0.4-0.1-0.8-0.1-1.2-0.2c-1.5-0.1-3.1-0.2-4.6-0.2c-0.7,0-1.5,0-2.2,0c-0.2,0-0.5,0-0.7,0c-0.6,0-1.3-0.1-1.9,0
	c-0.2,0-0.5,0-0.7,0c-0.2,0-0.4,0-0.6,0c-0.8,0.1-1.7,0.2-2.5,0.3c-1,0.2-2,0.4-3,0.6c-0.5,0.1-1,0.4-1.4,0.8
	c-0.2,0.2-0.3,0.4-0.4,0.6c-0.1,0.5,0,0.9,0.4,1.3c0.4,0.4,0.9,0.6,1.4,0.7c0.7,0.1,1.3,0.2,2,0.3c0.8,0.1,1.5,0.2,2.3,0.2
	c0.3,0,0.6,0.1,0.9,0.1c0.8,0.1,1.6,0.1,2.4,0.2c0.4,0,0.8,0.1,1.2,0.1c0.5,0,1,0.1,1.5,0.1c0.2,0,0.3,0.1,0.5,0.1
	c0.6,0,1.2,0.1,1.8,0.2c0.7,0,1.4,0.2,2.2,0.3c0.7,0.1,1.4,0.3,2.1,0.4c0.5,0.1,0.9,0.2,1.4,0.2c0.2,0,0.3,0,0.5,0.1
	c0.2-0.1,0.4-0.2,0.6-0.3c0.3-0.2,0.6-0.3,1-0.5c0.9-0.5,1.5-1.3,2-2.2c0.1-0.2,0.1-0.4,0-0.5c-0.2-0.3-0.5-0.7-0.7-1
	C54.2,82.3,53.4,81.8,52.6,81.5z M49.5,71.7c-0.4,0-0.7,0.1-1.1,0.2c-0.6,0.1-1.3,0.2-1.9,0.4c-0.5,0.1-1,0.2-1.4,0.4
	c-0.8,0.2-1.6,0.4-2.4,0.7c-0.6,0.2-1.2,0.4-1.9,0.6c-0.3,0.1-0.5,0.2-0.7,0.3c-1.1,0.5-2.3,0.8-3.3,1.4c-0.5,0.2-0.9,0.5-1.4,0.7
	c-0.7,0.3-1.3,0.6-1.9,0.9c-0.3,0.2-0.6,0.3-0.9,0.5c-0.3,0.2-0.5,0.4-0.8,0.6c-0.3,0.3-0.4,0.7-0.2,1.1c0.1,0.3,0.3,0.5,0.4,0.8
	c0.1,0.2,0.4,0.3,0.6,0.3c0.6,0,1.2,0.2,1.7,0c0.8,0,1.5-0.1,2.3-0.1c0.1,0,0.2,0,0.3,0c0.3,0,0.6-0.1,0.9-0.1c0.5,0,1.1,0,1.6-0.1
	c0.2,0,0.3-0.1,0.5-0.1c0.4,0,0.8,0,1.2-0.1c0.1,0,0.1,0,0.2,0c0.2,0,0.4,0,0.6,0c0.2,0,0.4,0,0.6-0.1c0.1,0,0.3,0,0.4,0
	c0.8-0.2,1.5-0.1,2.3-0.2c0.4,0,0.8,0,1.2,0c0.4,0,0.7-0.1,1.1-0.1c0.2,0,0.5,0,0.8-0.1c0.8-0.1,1.7-0.2,2.5-0.3
	c0.7-0.1,1.5-0.2,2.2-0.4c0.6-0.2,1-0.6,1.4-1.1c0,0,0-0.1,0-0.1c0.3-0.7,0.3-1.3,0.3-2c0-0.4-0.1-0.8-0.2-1.1
	c-0.1-0.2-0.1-0.3-0.2-0.5c0-0.3-0.2-0.5-0.4-0.7c-0.2-0.2-0.5-0.3-0.8-0.5c-0.2-0.1-0.4-0.1-0.6-0.2c-0.4-0.2-0.8-0.4-1.2-0.5
	C50.9,71.8,50.2,71.6,49.5,71.7z M26.4,97.5c0.9-0.2,1.8-0.4,2.7-0.5c0.1,0,0.1,0,0.2,0c0.3-0.1,0.6-0.1,0.9-0.1
	c1.3-0.1,2.6-0.3,4-0.3c0.1,0,0.1,0,0.2,0c0.4-0.1,0.7,0,1.1-0.1c0.4,0,0.7-0.1,1.1-0.1c0.7,0,1.3-0.1,2,0c0.1,0,0.1,0,0.2,0
	c0.4,0,0.8-0.1,1.2,0c0.9,0.1,1.8,0,2.8,0.1c0.5,0.1,1,0,1.5,0.1c0.9,0.1,1.8,0.1,2.8,0.3c0.4,0.1,0.8,0.2,1.3,0.2
	c0.6,0.1,1.1,0.2,1.7,0.3c1,0.2,2.1,0.4,3.1,0.7c0.5,0.1,1.1,0.3,1.6,0.4c0.8,0.2,1.6,0.5,2.3,0.8c0.6,0.2,1.2,0.4,1.8,0.5
	c0.3,0.1,0.5,0,0.7-0.2c0.5-0.5,0.6-1.1,0.4-1.7c-0.2-0.6-0.5-1.1-0.9-1.6c-0.3-0.4-0.6-0.7-1-1c-0.4-0.3-0.8-0.6-1.1-0.9
	c-0.5-0.4-1.1-0.6-1.7-0.7c-0.5-0.1-0.7,0.1-0.6,0.7c-0.1-0.2-0.2-0.3-0.3-0.4c-0.2-0.4-0.4-0.7-0.7-1.1c-0.2-0.3-0.4-0.5-0.8-0.6
	c-0.2-0.1-0.5-0.2-0.7-0.3c-1.1-0.6-2.3-1.2-3.4-1.8c-0.2-0.1-0.4-0.2-0.6-0.3c-0.8-0.4-1.6-0.8-2.3-1.3c-0.5-0.3-1.1-0.6-1.6-0.9
	c-0.4-0.2-0.9-0.4-1.4-0.4c-0.1,0-0.2,0-0.4,0c-0.7,0-1.4,0-2-0.1c-0.3,0.1-0.6,0-0.9,0c-0.7-0.1-1.4-0.2-2.1-0.2
	c-0.5,0-1-0.1-1.5-0.1c-0.5-0.1-1-0.2-1.5-0.3c-0.4-0.1-0.8-0.2-1.1-0.3c-0.5-0.1-1-0.3-1.4-0.5c-1-0.4-1.4-1.2-1.6-2.2
	c-0.1-0.4,0-0.8,0.3-1.1c0.3-0.3,0.6-0.6,1-0.7c0.1,0,0.2-0.1,0.3-0.2c0-0.1,0-0.3-0.1-0.4c-0.1-0.3-0.2-0.6-0.6-0.7
	c-0.6-0.2-1-0.6-1.2-1.2c0-0.1,0-0.2,0.1-0.3c0.1-0.4,0.3-0.8,0.6-1.2c0.6-0.6,1.3-1.1,2-1.5c0.8-0.5,1.6-0.9,2.5-1.2
	c0.6-0.3,1.2-0.5,1.9-0.8c1-0.4,2-0.8,3-1.2c0.4-0.1,0.8-0.3,1.2-0.4c0.6-0.2,1.2-0.4,1.8-0.5c0.6-0.2,1.3-0.4,1.9-0.6
	c0.3-0.1,0.7-0.2,1-0.3c0.9-0.3,1.9-0.5,2.9-0.8c0,0,0.1,0,0.2,0c0.2,0,0.3-0.1,0.4-0.2c0.1-0.1,0.3-0.3,0.4-0.5
	c0.4-0.6,0.7-1.2,1-1.8c0.4-0.7,0.8-1.5,1.1-2.3c0.1-0.3,0.1-0.5,0-0.8c-0.1-0.2-0.2-0.4-0.3-0.6c-0.2-0.4-0.5-0.8-0.7-1.2
	c-0.1-0.2-0.2-0.4-0.3-0.6c-0.4-0.6-0.8-1.1-1.2-1.7c-0.5-0.7-0.9-1.4-1.5-2.1c-0.6-0.7-1.1-1.4-1.8-1.9c-0.4-0.3-0.7-0.5-1.1-0.8
	C44.9,56,44.8,56,44.7,56c-0.3,0-0.7,0-1,0c-0.4,0-0.7,0-1.1,0.1c-0.4,0-0.9,0.1-1.3,0.1c-0.5,0-1,0.1-1.4,0.1c-0.3,0-0.6,0.1-1,0.1
	c-0.7,0.1-1.4,0.2-2.1,0.2c-0.2,0-0.3,0.1-0.5,0.1c-0.7,0.1-1.4,0.1-2.1,0.2c-0.2,0-0.4,0.1-0.6,0.1c-0.5,0.1-0.9,0.1-1.4,0.2
	c-0.4,0.1-0.8,0.2-1.2,0.1c-0.1,0-0.2,0-0.4,0c-0.3,0-0.7,0.1-1,0.1c-0.8-0.1-1.7-0.1-2.5-0.4c-0.8-0.2-1.6-0.4-2.3-0.5
	c-0.3-0.2-0.6-0.1-0.8,0.1c-0.1,0.1-0.2,0.1-0.3,0.2c0-0.1-0.1-0.2-0.1-0.3c0-0.5-0.1-0.9-0.1-1.4c0-0.6-0.1-1.1-0.1-1.7
	c0-0.7-0.1-1.3-0.1-2c0-0.2,0-0.4-0.1-0.6c0-0.5-0.1-1.1-0.1-1.6c0-0.5,0-1,0-1.5c0-0.2,0-0.4,0-0.5c0-0.3,0-0.6,0-0.9
	c0-0.1,0.1-0.2,0.3-0.3c0.1,0,0.3-0.1,0.4-0.1c0.2-0.1,0.3-0.1,0.4-0.3c0.1-0.1,0-0.2-0.1-0.2c-0.1,0-0.1,0-0.2,0
	c-0.6,0.1-1.1,0.2-1.7,0.2c-0.3,0-0.6,0.1-0.9,0.1c-0.9-0.1-1.7-0.1-2.6-0.3c-0.9-0.1-1.7-0.3-2.6-0.5c-1.3-0.3-2.6-0.8-3.8-1.3
	c-1.1-0.5-2-1.2-2.8-2c-1.2-1.1-2.2-2.4-2.9-3.9c-0.1-0.1-0.1-0.2-0.2-0.3c-0.3-0.5-0.6-1.1-0.7-1.7c0-0.2-0.1-0.3-0.2-0.4
	c-0.1-0.3-0.3-0.7-0.4-1c-0.2-0.9-0.6-1.7-0.7-2.6c-0.1-0.6-0.2-1.2-0.3-1.9c-0.1-0.5-0.1-1-0.2-1.5C4,27.6,4,27,3.8,26.4
	c-0.1-0.4-0.1-0.8-0.1-1.2c-0.1-0.5-0.2-1-0.2-1.5c0-0.1,0-0.3,0-0.4c0-0.4-0.1-0.8-0.2-1.2c0-0.2,0-0.4-0.1-0.6
	c0-0.2-0.1-0.4-0.1-0.6c0-0.7-0.2-1.3-0.1-2c0,0,0-0.1,0-0.1c-0.1-0.6-0.1-1.2-0.2-1.9c0-0.2,0-0.4,0-0.6c-0.1-0.7,0-1.5-0.1-2.2
	c0-0.1,0-0.1,0-0.2c0-0.3,0.1-0.5,0.1-0.8c0-0.9,0-1.9,0-2.8c0-1.1,0-1.1,0-2.2c0,0,0.2-0.3,0.2-0.5c0-0.2,0-0.4-0.1-0.6
	C3,6.9,2.6,6.6,2.6,6.6l-0.4,0L2,7l0.2,0.6l0,0.2c0,1.6,0,2.1,0,3.6c0,0.4,0,0.8,0,1.1c-0.1,0.6-0.1,1.2-0.1,1.7c0,0.8,0,1.5,0,2.3
	c0,0.3,0,0.6,0,1c0,0.2,0.1,0.5,0.1,0.7c0,0.3-0.1,0.5,0.1,0.8c0,0,0,0.1,0,0.2C2.5,21.1,2.7,23,3,24.8c0,0.2,0.1,0.5,0.1,0.7
	c0.1,1,0.2,2.1,0.4,3.1c0.1,0.7,0.2,1.3,0.3,1.9c0.1,0.7,0.2,1.4,0.4,2c0.1,0.3,0.2,0.6,0.3,0.9c0.1,0.5,0.3,1.1,0.5,1.6
	C5,35.3,5,35.5,5.1,35.7c0.2,0.5,0.4,1.1,0.7,1.6c0.1,0.1,0.1,0.2,0.2,0.4c0.4,0.9,0.9,1.7,1.5,2.4c0.5,0.6,1,1.3,1.6,1.8
	c0.9,0.9,1.9,1.6,3,2.2c1.3,0.7,2.7,1.1,4.2,1.4c0.2,0,0.4,0.1,0.6,0.1c1.2,0.3,2.4,0.4,3.6,0.6c0,0,0,0,0,0c0,0,0.1,0,0.1,0
	c0,0,0,0,0,0c0,0,0.1,0,0.2,0c0.7,0.1,0.8,0.3,1.3,0.6c0.5,0.3,0.6,0.8,0.6,1.2c0,0.1,0,0.1,0,0.2c0,0,0,0,0,0l0,0
	c0,0.6,0,1.1,0,1.7c0,1.2,0.1,2.5,0.2,3.7c0.1,1.2,0.2,2.4,0.3,3.6c-0.2-0.1-0.4-0.1-0.6-0.2c-0.4,0-0.8,0-1.2,0.2
	c-0.2,0.1-0.5,0.2-0.7,0.3c-0.7,0.3-1.3,0.6-2,0.9c-0.4,0.2-0.7,0.3-1,0.5c-1,0.1-2.1,0.2-3.1,0.3c-0.6,0.1-1.3,0.2-1.9,0.3
	c-0.7,0.1-1.4,0.2-2.1,0.5c-0.4,0.2-0.7,0.5-0.9,0.9c-0.2,0.4-0.4,0.9-0.6,1.3c-0.4,1-0.9,2.1-1.3,3.1c-0.3,0.6-0.6,1.2-0.8,1.8
	c-0.7,1.7-1.4,3.4-2,5.2c-0.2,0.6-0.4,1.2-0.1,1.9c0,0,0,0.1,0,0.1c-0.1,0.3,0.1,0.4,0.2,0.6c0.3,0.4,0.6,0.8,1,1.2
	c0.6,0.7,1.3,1.3,2,1.8c0,0,0,0,0,0c0.6,0.5,2.7,3.7,0,6.3c-0.5,0.5-1.1,1-1.7,1.4c-0.6,0.5-1.3,0.9-1.9,1.3
	c-0.3,0.2-0.5,0.4-0.8,0.6c-0.8,0.5-1.7,0.9-2.5,1.3C0.7,89,0.5,89,0.3,89.1C0.1,89.2,0,89.3,0,89.6c0,0.2,0,0.4,0.2,0.6
	c0.4,0.6,0.9,1.3,1.3,1.9C2.2,93,3,93.8,3.8,94.6c0.7,0.7,1.4,1.3,2.1,1.9c0.3,0.3,0.6,0.6,1,0.8c1.2,0.9,2.4,1.7,3.6,2.4
	c0.6,0.3,1.2,0.7,1.9,0.8c0.3,0.1,0.5,0.2,0.8,0.2c1.1,0.3,2.2,0.4,3.3,0.4c0.4,0,0.9-0.1,1.2-0.4c0,0,0.1-0.1,0.1-0.1
	c0.9-0.5,1.7-1,2.6-1.4c0.4-0.2,0.8-0.4,1.2-0.5c0.8-0.3,1.7-0.5,2.5-0.8C24.9,97.9,25.7,97.7,26.4,97.5z M54.8,94.8
	C54.8,94.8,54.8,94.8,54.8,94.8C54.8,94.8,54.8,94.7,54.8,94.8C54.8,94.7,54.8,94.7,54.8,94.8z M54.7,94.6
	C54.7,94.6,54.7,94.7,54.7,94.6C54.7,94.7,54.7,94.7,54.7,94.6C54.7,94.6,54.7,94.6,54.7,94.6C54.7,94.6,54.7,94.6,54.7,94.6z
	 M16.5,63.2c0.1,0,0.2,0.1,0.2,0.2c-0.2,0.1-0.5,0.1-0.7-0.1c-0.3-0.2-0.6-0.4-0.9-0.6c0,0-0.1-0.1-0.1-0.2
	C15.6,62.7,16.1,63,16.5,63.2z M19.6,69.9c-1.6-1.5-3.4-2.8-5.3-3.9c0-0.1,0-0.1,0.1-0.2c0.5-0.3,0.9-0.7,1.4-1
	c0.1-0.1,0.2-0.1,0.3-0.2c0.4-0.3,0.4-0.3,0.9-0.4c0.1-0.3,0.1-0.6-0.1-0.8c0.4,0,0.8-0.1,1.2-0.1c1.3-0.1,2.5-0.6,3.4-1.5
	c0.3-0.3,0.6-0.6,0.8-1c0.3-0.4,0.6-0.8,0.7-1.2c0-0.1,0.1-0.1,0.1-0.2c0,0.1,0.1,0.2,0.1,0.3c0,0.5,0.1,1,0.1,1.5
	c0,0.5,0.1,0.9,0.1,1.4c0.1,0.8,0.2,1.7,0.3,2.5c0,0,0,0.1,0,0.1l0,0c0,0.1-0.1,0.3-0.2,0.3c0,0,0,0,0,0c-1,0.1-2,0.3-3,0.4
	c-0.7,0.1-1.4,0.2-2.2,0.3c-0.3,0.1-0.7,0.1-1,0.2c-0.2,0-0.4,0.2-0.3,0.4c0,0.2,0.3,0.3,0.5,0.3c0.3-0.1,0.6-0.2,0.9-0.2
	c0.7-0.1,1.3-0.2,2-0.3c0.2,0,0.5-0.1,0.7-0.1c0.5-0.1,1.1-0.2,1.6-0.3c0,0,0.1,0,0.1,0c0.9,0,1.8-0.3,2.7-0.3c0.2,0,0.4,0,0.6-0.1
	c0.5-0.1,0.9-0.1,1.4-0.2l0,0c0.1,0,0.5,0,0.8,0.1c0.2,0.1,0.5,0.2,0.5,0.2s0.5,0.1,0.8,0c0.3,0,0.6-0.1,0.6-0.1s0.2,0.1,0.3-0.2
	c0.1-0.2,0.1-0.2,0.1-0.2l0-0.2l0.1-0.2L30.6,65l-0.1-0.1c0-0.1-0.1-0.1-0.1-0.1c-0.1-0.1-0.2-0.1-0.3-0.1c-0.1,0-0.4,0.1-0.4,0.1
	s-0.1,0-0.3,0.1c-0.3,0.1-0.7,0.2-0.8,0.2l0,0c-0.9,0.1-1.9,0.2-2.8,0.3c-0.1,0-0.2,0-0.3,0c-0.2,0-0.3-0.1-0.6-0.2
	c-0.2-0.1-0.3-0.5-0.4-0.7c0-0.3-0.1-0.6-0.1-0.9c0-0.5-0.1-1-0.2-1.5C24,61.4,24,60.8,24,60.2c0.2-0.1,0.3,0,0.3,0.1
	c0.1,0.2,0.2,0.4,0.4,0.5c0,0.1,0.1,0.1,0.1,0.2c0.4,0.3,0.7,0.7,1.2,0.9c0,0,0.1,0,0.1,0.1c0.2,0.3,0.6,0.4,1,0.5
	c0.3,0.1,0.7,0.2,1,0.3c0.2,0,0.3,0.1,0.5,0.1c0.1,0,0.2,0,0.4,0c1.2,0.2,2.3,0.2,3.5,0c0.1,0,0.3,0,0.4,0c0.2,0,0.4,0,0.6-0.1
	c0.3-0.1,0.5-0.1,0.8-0.2c0.1,0,0.3-0.1,0.4-0.2c0,0,0,0,0,0c0,0,0,0,0,0c0,0,0,0.1,0,0.1c-0.2,0.1-0.3,0.2-0.5,0.3
	c-0.3,0.2-0.4,0.6-0.1,0.8c0.3,0.3,0.7,0.4,1.1,0.6c0.8,0.3,1.6,0.5,2.5,0.6C38.8,65,39.9,65,41,65c0,0,0.1,0,0.2,0
	c-0.1,0.1-0.1,0.1-0.2,0.1c-0.7,0.2-1.4,0.6-2,0.9c-0.1,0.1-0.2,0.1-0.3,0.2c-0.6,0.3-1.2,0.5-1.8,0.8c-0.5,0.2-1.1,0.5-1.6,0.8
	c-1.1,0.7-2.4,1.2-3.5,1.7c-0.7,0.3-1.4,0.7-2.2,1c-0.1,0.1-0.3,0.1-0.4,0.2c-0.3,0-0.5,0.1-0.6,0.3C25.6,70.5,22.6,70.3,19.6,69.9z
	 M21.4,88.6C21.4,88.6,21.4,88.6,21.4,88.6c0-0.1,0-0.1,0-0.2C21.4,88.5,21.5,88.5,21.4,88.6C21.4,88.6,21.4,88.6,21.4,88.6z
	 M23,81.7c-0.1,1-0.3,2-0.4,3.1c-0.1,0.7-0.3,1.3-0.5,2c-0.1,0.4-0.2,0.8-0.4,1.2c0,0.1-0.1,0.2-0.1,0.3c0,0,0,0-0.1,0
	c0.1-0.4,0.1-0.8,0.2-1.2c0.1-0.4,0.2-0.8,0.2-1.2c0.2-1.2,0.3-2.4,0.5-3.6c0-0.3,0-0.6,0-0.9c0.1-1,0.1-2.1,0.1-3.1
	c0-0.7-0.1-1.3-0.2-2c-0.1-0.6-0.3-1.2-0.4-1.8c0-0.2-0.1-0.4-0.2-0.7c0-0.1,0-0.2-0.1-0.4c0.2,0,0.2,0.1,0.2,0.2
	c0.4,0.9,0.7,1.9,0.8,2.9c0.1,0.8,0.2,1.7,0.2,2.5c0,0.7,0,1.4,0,2.1C23,81.2,23,81.5,23,81.7z M2.4,4.1c0.2,0.1,0.4,0.1,0.4,0.1
	h0.6c0,0,0.4-0.1,0.5-0.2C4,4,4,3.8,4.2,3.8c0,0,0,0,0,0c0.2,0,0.3-0.1,0.3-0.1l0,0c0.8-0.2,1.6-0.4,2.4-0.5C7.8,3,8.6,2.8,9.5,2.6
	c0.6-0.1,1.3-0.2,1.9-0.3c0.4-0.1,0.9-0.1,1.3-0.1c0.3,0,0.6-0.1,1-0.1c0.4,0,0.8-0.1,1.3-0.1c0.8-0.1,1.7-0.2,2.5-0.3
	c1-0.1,2-0.1,3-0.2c0.5,0,0.9,0,1.4-0.1c0.9-0.2,1.9-0.2,2.8-0.3C25.4,1,26,1,26.7,0.9c0.5,0,1-0.1,1.4-0.1c0.3,0.1,0.5,0,0.8,0
	c0.3,0,0.6,0,0.9,0c0.4,0,0.8-0.1,1.2-0.1c1.4-0.1,2.7-0.1,4.1,0c0,0,0.6,0.1,0.7,0.1c0.1,0,0.5,0.2,0.8,0.4s0.5,0.6,0.6,0.7
	c0.1,0.1,0.3,0.6,0.3,0.6c0,0.1,0,0.2,0,0.4c0,0.2,0.1,0.4,0,0.6c0,1,0,2.1-0.1,3.1c0,0.5,0.1,1,0.1,1.5c0,1.2,0,2.5,0,3.7
	c0,0.2,0,0.4,0,0.6c-0.1,0.1-0.3,0.2-0.4,0.3c-0.5,0.5-1.2,0.8-1.8,1.1c-0.7,0.3-1.4,0.3-2.1,0.4c-0.6,0.1-1.3,0.2-1.9,0.2
	c-0.8,0.1-1.6,0.2-2.4,0.2c-0.7,0.1-1.5,0.1-2.2,0.1c-0.4,0-0.8,0-1.2,0c-0.9,0.1-1.8,0.1-2.7,0.2c-1.3,0-2.5,0-3.8,0
	c-0.1,0-0.1,0-0.2,0c-0.6-0.1-1.2-0.1-1.9-0.2c-0.4,0-0.9,0-1.3,0c-1.1-0.1-2.3,0-3.4,0.2c-0.7,0.1-1.4,0.3-2,0.6
	c-0.2,0.1-0.4,0.2-0.6,0.2c-0.4,0-0.6,0.3-0.8,0.5c-0.2,0.2-0.4,0.5-0.6,0.7c-0.4,0.4-0.6,0.9-0.7,1.5C7.2,18.6,7.1,19,7,19.4
	c-0.1,0.7-0.2,1.3-0.2,2c0,1.2,0.1,2.5,0.1,3.7c0,1.4,0.1,2.8,0.3,4.1c0.1,0.7,0.2,1.3,0.3,2c0.1,0.4,0.2,0.8,0.3,1.1
	C8,33,8.2,33.6,8.4,34.2c0.3,0.8,0.6,1.6,0.9,2.4c0.4,0.9,1,1.7,1.6,2.4c0.8,1,1.8,1.7,2.9,2.3c0.8,0.4,1.5,0.8,2.4,1.1
	c0.6,0.2,1.1,0.4,1.7,0.5c0.7,0.2,1.4,0.2,2.2,0.4c0.9,0.2,1.8,0.2,2.6,0.3c0.7,0,1.4,0,2.1,0c1.2,0,2.4-0.1,3.6-0.3
	c0.2,0,0.3-0.1,0.5-0.1c0.9-0.1,1.7-0.3,2.5-0.7c0.1,0,0.1,0,0.2,0c-0.3,0.3-0.7,0.6-1.1,0.9c-0.4,0.3-0.8,0.5-1.2,0.7
	c-0.6,0.3-1.2,0.6-1.8,0.9c-0.3,0.2-0.7,0.2-1.1,0.4c-0.2,0.1-0.3,0.1-0.4,0.3c0.2,0.2,0.4,0.3,0.6,0.2c0.5-0.2,0.9-0.3,1.4-0.5
	c0.2-0.1,0.4-0.2,0.6-0.3c0.8-0.4,1.6-0.9,2.4-1.3c0.1,0,0.2-0.1,0.2-0.2c0.1-0.1,0.3-0.2,0.4-0.3c0.4-0.3,0.8-0.5,1.1-0.9
	c0.1-0.2,0.3-0.3,0.4-0.5c0.5-0.6,1.2-1,1.5-1.7c0.5-0.6,1-1.3,1.3-2c0.2-0.4,0.5-0.9,0.6-1.3c0.1-0.4,0.3-0.8,0.4-1.3
	c0.2-0.6,0.3-1.3,0.5-1.9c0.2-0.9,0.4-1.8,0.5-2.7c0.1-0.3,0.1-0.6,0.1-0.9c0-0.2,0.1-0.4,0.1-0.6c0-0.2,0-0.4,0-0.6
	c0-0.2,0.1-0.4,0.1-0.6c0-0.4,0-0.9,0-1.3c0-0.3,0-0.6,0-1c0-0.5,0-0.9,0-1.4c0-0.5,0-1,0-1.5c0-0.6,0-1.2-0.1-1.8
	c-0.1-0.9,0-1.9-0.1-2.9c0.1-0.3,0-0.6,0-0.8c0.1-0.8-0.1-1.5,0-2.3c-0.1-0.6-0.1-1.3-0.1-2c-0.1-0.9-0.1-1.8-0.1-2.8
	c0-1,0-2.1,0-3.1c0-0.2,0-0.5,0-0.7c0-0.5,0-1.1,0-1.6c0-0.1,0-0.1,0-0.2c0-0.5,0-1.1,0-1.6l0-0.2l-0.1-0.5l-0.2-0.5
	c0,0-0.1-0.4-0.1-0.5c0-0.1-0.4-0.6-0.6-0.7c-0.2-0.2-0.2-0.2-0.4-0.4c-0.2-0.1-0.7-0.3-0.9-0.4c-0.2,0-1.2-0.1-1.4-0.1
	c-0.1,0-0.2,0-0.3,0c-0.9,0-1.7,0-2.6,0.1c-1,0.1-2.1,0.2-3.1,0.2c-0.4,0-0.8,0-1.2,0.1c-0.9,0.1-1.8,0.2-2.8,0.3
	c-1,0.1-2,0.2-3,0.3c-0.3,0-0.6,0.1-0.9,0.1c-0.5,0-1.1,0.1-1.6,0.1c-0.2,0-0.4,0-0.6,0c-0.4,0.1-0.9,0.1-1.3,0.2
	c-1.2,0.1-2.4,0.2-3.7,0.4c-0.4,0-0.9,0.1-1.3,0.1C11.2,1.9,10.6,2,10.1,2C9.5,2.1,8.9,2.2,8.3,2.3C7.6,2.5,6.9,2.6,6.2,2.8
	C5.8,2.9,5.4,2.9,5,3C4.6,3.1,4.1,3.2,3.6,3.3c-0.2,0-0.5-0.1-0.5-0.1L2.7,3.1l-0.4,0L2.1,3.4l0.1,0.5C2.2,3.9,2.2,4.1,2.4,4.1z"/>
</svg>
