<?xml version="1.0" encoding="utf-8"?>
<!-- Generator: Adobe Illustrator 27.2.0, SVG Export Plug-In . SVG Version: 6.00 Build 0)  -->
<svg version="1.1" id="_レイヤー_2" xmlns="http://www.w3.org/2000/svg" xmlns:xlink="http://www.w3.org/1999/xlink" x="0px"
	 y="0px" viewBox="0 0 46.8 120" style="enable-background:new 0 0 46.8 120;" xml:space="preserve" width="46.8" height="120">
<style type="text/css">
	.st0{fill:#FFFFFF;}
</style>
<path class="st0" d="M19.1,88.8c0.2,0,0.3-0.1,0.4-0.3c0-0.1,0.1-0.2,0.1-0.3c0.1-0.3,0.2-0.5,0.1-0.8c-0.2-0.4-0.4-0.6-0.9-0.6
	c-0.3,0-0.5,0.1-0.7,0.3c-0.2,0.3-0.2,0.6-0.1,0.9C18.1,88.6,18.6,88.9,19.1,88.8z M20.5,104.9c-0.1-0.6-0.1-1.2-0.2-1.8
	c-0.1-1.1-0.3-2.1-0.4-3.2c-0.1-0.9-0.2-1.9-0.4-2.8c-0.1-0.9-0.2-1.8-0.3-2.6c-0.2-1.2-0.2-2.4,0-3.6c0-0.4-0.1-0.5-0.5-0.4
	c0,0.2,0,0.4,0,0.6c0,0.9-0.1,1.8,0,2.6c0.1,1.2,0.3,2.3,0.4,3.4c0.1,0.8,0.2,1.6,0.3,2.5c0.2,1.3,0.4,2.7,0.5,4
	c0.1,0.9,0.2,1.8,0.3,2.7c0.1,0.7,0.1,1.4,0.1,2.2c0,0.2,0.2,0.4,0.4,0.4c0.1,0,0.2-0.1,0.2-0.2c0-0.3-0.1-0.6-0.1-1
	C20.6,106.8,20.6,105.9,20.5,104.9z M37.8,82c-0.3,0-0.5,0-0.6,0.3c-0.1,0.1-0.1,0.3-0.2,0.4c-0.2,0.9-0.5,1.7-0.9,2.6
	c0.1,0.1,0.2,0.1,0.3,0.2c0.1,0.1,0.3,0,0.4-0.1c0.2-0.3,0.4-0.7,0.6-1.1c0.2-0.4,0.4-0.8,0.6-1.2c0.2-0.3,0.2-0.5,0.1-0.7
	C38.2,82.2,38.1,82,37.8,82z M5.8,104.8c-0.2-1.4-0.5-2.8-1-4.2c0-0.1-0.1-0.2-0.1-0.3c-0.1-0.5-0.2-1-0.4-1.5
	c-0.3-0.8-0.6-1.7-0.8-2.5C3.2,95.5,3,94.8,2.7,94C2.3,93,2.1,92,2,90.9c-0.1-0.7-0.2-1.5-0.2-2.2c-0.1-0.6-0.1-1.1,0.1-1.7
	c0-0.1,0.1-0.3,0.1-0.5C2,85.8,2.3,85.2,3,84.8c0,0,0,0,0.1,0c0.3-0.3,0.6-0.2,0.9,0.1C4.1,85,4.2,85,4.5,84.9
	c-0.1-0.1-0.1-0.2-0.1-0.2c-0.2-0.2-0.4-0.3-0.7-0.4C3.3,84,2.8,84,2.4,84.1c-0.9,0.1-1.5,0.5-1.9,1.2c-0.2,0.3-0.2,0.7-0.3,1
	C0,87,0,87.6,0,88.2c0.1,1.1,0.4,2.1,0.7,3.2c0.2,0.6,0.4,1.1,0.5,1.7c0.2,0.8,0.4,1.6,0.9,2.3c0.1,0.1,0.1,0.2,0.1,0.3
	c0.5,1.2,1,2.3,1.4,3.5c0.2,0.6,0.4,1.2,0.6,1.8c0,0.1,0.1,0.3,0.1,0.4c0.2,1.2,0.2,2.4,0.3,3.5c0.1,0.9,0,1.8,0,2.6
	c0,0.9-0.3,1.8-0.7,2.7c-0.2,0.3-0.3,0.7-0.5,1c-0.3,0.6-0.6,1.1-1.1,1.6c-0.5,0.5-1.1,0.9-1.7,1.1c-0.2,0.1-0.3,0.2-0.5,0.3
	c0.2,0.4,0.5,0.4,0.8,0.3c0.1-0.1,0.3-0.2,0.4-0.2c0.1,0,0.2-0.1,0.2-0.1c0.4-0.1,0.8-0.2,1.1-0.4c0.4-0.3,0.9-0.6,1.2-1
	c0.4-0.4,0.7-0.9,1.1-1.3c0.4-0.4,0.5-1,0.7-1.5c0.2-0.9,0.3-1.8,0.3-2.8c0-0.8-0.1-1.5-0.1-2.3C5.9,104.9,5.8,104.9,5.8,104.8z
	 M24.2,115.8c-0.1,0.4-0.2,0.9-0.3,1.3c-0.1,0.4-0.1,0.9-0.2,1.3c0,0-0.1,0-0.1,0c0-0.1-0.1-0.3-0.1-0.4c-0.1-0.3-0.1-0.6-0.2-0.8
	c-0.2-0.6-0.4-1.1-0.6-1.7c-0.1-0.2-0.1-0.3-0.4-0.2c0,0,0,0.1,0,0.1c0.4,0.8,0.6,1.7,0.8,2.6c0.1,0.4,0.3,0.9,0.4,1.3
	c0,0.2,0.1,0.2,0.3,0.3c0.1,0.1,0.2,0,0.2-0.2c0-0.1,0-0.3,0-0.4c0-0.4,0.1-0.9,0.2-1.3c0.1-0.4,0.2-0.7,0.2-1.1
	c0-0.3,0.1-0.5,0.2-0.7C24.5,115.8,24.4,115.7,24.2,115.8z M13.5,93.2c0-0.3,0-0.7,0-1c0-0.7,0-1.3,0-2c0-0.2-0.1-0.4-0.1-0.6
	c0-0.5-0.1-1-0.4-1.4c-0.3-0.5-0.7-0.9-1.3-0.9c-0.1,0-0.3,0-0.4,0c-0.3-0.1-0.5,0.1-0.6,0.2c-0.3,0.3-0.5,0.7-0.7,1.1
	C10,89,9.9,89.4,9.7,89.7c-0.1,0.2-0.2,0.4-0.2,0.6c-0.1,0.2-0.2,0.5-0.2,0.7c-0.1,0.2-0.2,0.5-0.2,0.7c-0.1,0.3-0.1,0.7-0.2,1
	c-0.3,1-0.4,2.1-0.6,3.1c-0.1,0.4-0.1,0.9,0,1.3c0,0.3,0,0.7,0,1c0,0,0,0,0,0c0,0.4,0.1,0.8,0.1,1.2c0.1,1,0.3,2.1,0.4,3.1
	c0.1,0.4,0.2,0.8,0.4,1.2c0.1,0.1,0.2,0.3,0.2,0.4c0.3,0.7,0.8,1.1,1.5,1.5c0.3,0.1,0.6,0.2,0.9,0.2c0.3,0,0.7,0,0.9-0.3
	c0.1-0.2,0.3-0.4,0.4-0.6c0.1-0.2,0.1-0.4,0.2-0.6c0-0.1,0-0.3,0-0.4c0-0.2,0-0.3,0-0.5c0-0.5,0-0.9,0-1.4c0-0.7,0-1.4,0-2.1
	c0-0.7,0-1.4,0.1-2.2c0-0.8,0-1.6,0.1-2.4c0-0.5,0.1-0.9,0-1.4c0-0.1,0-0.2,0-0.3C13.5,93.5,13.5,93.3,13.5,93.2z M12.9,96.2
	c0,0.4,0,0.9,0,1.3c0,0.7-0.1,1.4-0.1,2.1c0,0.6,0,1.2,0,1.8c0,0.7,0,1.5-0.2,2.2c-0.1,0.3-0.1,0.7-0.2,1c0,0.1-0.1,0.3-0.1,0.4
	c-0.4,0.2-0.6-0.1-0.8-0.3c-0.3-0.3-0.4-0.6-0.5-0.9c-0.3-0.8-0.4-1.6-0.6-2.5c-0.1-0.8-0.3-1.6-0.4-2.4c-0.1-1-0.2-2-0.2-2.9
	c0-0.8,0-1.5,0.1-2.3c0.1-0.8,0.3-1.6,0.4-2.4c0.2-0.8,0.4-1.5,0.6-2.3c0.1-0.4,0.3-0.8,0.5-1.1c0.2-0.4,0.5-0.3,0.8-0.1
	c0.3,0.2,0.5,0.6,0.6,0.9c0.1,0.3,0.1,0.6,0.1,0.9c0,0.3,0.1,0.6,0.1,0.9c0,0.6,0,1.1,0,1.7c0,0.7,0,1.4,0,2.2
	C13,95,12.9,95.6,12.9,96.2z M42.4,117.9c0-0.5,0-0.9,0-1.4c0-0.3,0-0.5,0-0.8c0-0.3,0-0.4-0.4-0.4c-0.8,1.7-1.1,2.5-1.5,3.9
	c0,0,0.1,0.1,0.1,0.1c0.1,0.1,0.2,0,0.3-0.1c0.1-0.3,0.1-0.6,0.2-0.9c0-0.2,0.2-0.3,0.4-0.3c0,0,0.1,0,0.1,0c0.3,0,0.3,0,0.4,0.3
	c0,0.2,0.1,0.3,0.1,0.5c0,0.2,0.1,0.3,0.1,0.5c0,0.3,0.1,0.4,0.4,0.4c0-0.1,0-0.2,0-0.3C42.5,118.9,42.4,118.4,42.4,117.9z
	 M42,117.6c-0.1,0-0.3,0-0.5,0c0.1-0.5,0.3-0.9,0.5-1.3C42.1,116.6,42.1,117.2,42,117.6z M40.7,116.1c-0.1,0-0.2,0.1-0.2,0.2
	c-0.2,0.7-0.4,1.5-0.7,2.2c0,0,0,0.1-0.1,0.1c-0.1-0.1-0.2-0.2-0.2-0.4c-0.1-0.4-0.3-0.8-0.4-1.1c-0.1-0.3-0.2-0.3-0.5-0.3
	c-0.1,0.8-0.1,1.6-0.2,2.4c0.1,0.1,0.1,0.2,0.3,0.2c0.2-0.5,0.1-1,0.2-1.5c0.2,0.5,0.5,1,1,1.4c0.1-0.1,0.1-0.2,0.1-0.3
	c0-0.2,0-0.4,0.1-0.5c0.1-0.3,0.1-0.5,0.2-0.8c0.2-0.4,0.3-0.9,0.5-1.3C41,116.3,40.9,116.1,40.7,116.1z M43.9,117.1
	c0-0.3,0-0.6,0-0.9c0-0.2-0.1-0.3-0.4-0.3c0,0.1,0,0.1,0,0.2c0,0.4,0,0.8,0,1.2c0,0.7,0,1.3,0,2c0,0.1,0,0.2,0.1,0.2
	c0.1,0,0.2,0.1,0.2,0.1c0,0,0-0.1,0-0.2c0-0.3-0.1-0.6-0.1-0.8C43.9,118,43.9,117.6,43.9,117.1z M37.9,116.4c-0.2-0.2-0.5-0.3-0.6,0
	c-0.2,0.2-0.3,0.5-0.4,0.7c0,0-0.1,0.1-0.1,0.2c0.1-0.6-0.3-1.2-0.9-1.3c-0.1-0.3-0.1-0.3-0.4-0.3c0,0.2,0,0.4-0.2,0.5
	c0.2,0.3,0.2,0.9,0,1.3c0,0.1,0.1,0.2,0.1,0.3c0,0.4,0,0.7,0,1.1c0,0.1,0,0.2,0,0.3c0.1,0.1,0.2,0.2,0.3,0.1c0.2,0,0.1-0.2,0.1-0.3
	c0,0,0,0,0-0.1c-0.1-0.4-0.1-0.7-0.1-1.1c0.2,0,0.4,0,0.6-0.1c0.2-0.1,0.3-0.2,0.4-0.4c0,0.1,0,0.1,0,0.2c0,0.4,0.1,0.8,0.3,1.1
	c0.1,0.1,0.1,0.2,0.2,0.2c0.3,0.2,0.5,0.2,0.7-0.1c0.1-0.1,0.2-0.3,0.2-0.4C38.4,117.8,38.5,117.1,37.9,116.4
	C37.9,116.5,37.9,116.5,37.9,116.4z M35.7,117.6c0-0.4,0-0.7,0-1c0-0.1,0-0.2,0.1-0.2c0.1,0,0.3,0,0.3,0.1c0.1,0.1,0.1,0.2,0.1,0.4
	C36.4,117.2,36.1,117.6,35.7,117.6z M37.5,118.8C37.5,118.8,37.5,118.8,37.5,118.8c-0.4-0.2-0.4-0.5-0.5-0.8c0-0.4,0.1-0.8,0.4-1.1
	c0.1-0.2,0.4-0.1,0.4,0.1C38.1,117.6,37.9,118.2,37.5,118.8z M45.9,116c-0.3-0.2-0.7-0.2-0.9,0.1c-0.2,0.3-0.3,0.5-0.3,0.9
	c0,0.3,0.1,0.5,0.2,0.8c0.1,0.3,0.3,0.7,0.4,1c0.1,0.2,0.1,0.3,0,0.5c-0.1,0.2-0.2,0.4-0.5,0.4c0.1,0.4,0.2,0.4,0.6,0.2
	c0.1-0.2,0.2-0.4,0.3-0.7c0.1-0.2,0-0.3-0.1-0.4c-0.3-0.6-0.6-1.1-0.6-1.8c0-0.3,0.1-0.6,0.4-0.7c0.2-0.1,0.3-0.1,0.5,0.1
	c0.1,0.1,0.2,0.2,0.2,0.3c0.1,0.1,0.1,0.2,0.3,0.1C46.4,116.4,46.2,116.2,45.9,116z M46.4,85.5c-0.5-0.1-1.1-0.1-1.6-0.1
	c-0.3,0-0.5,0-0.8,0c-0.6,0-0.5,0.1-0.7,0.5c0,0,0,0.1,0,0.1c-0.1,0.6-0.3,1.2-0.4,1.8c-0.1,0.9-0.3,1.8-0.4,2.7
	c-0.1,0.7-0.2,1.3-0.2,2c-0.1,1.2-0.2,2.4-0.3,3.6c0,0.6-0.1,1.2-0.1,1.8c-0.1,0.8-0.2,1.6-0.1,2.3c0,0.3,0,0.6,0,0.9
	c0,0.3,0,0.6,0,0.8c0,0.5,0.1,0.9,0.1,1.4c0,0.3,0,0.6,0,0.9c0,0.5,0.1,0.9,0.1,1.4c0,0.8,0,1.6,0,2.4c0,0.6,0.2,1.2,0.7,1.6
	c0.3,0.3,0.5,0.2,0.8,0.1c0.2-0.1,0.4-0.1,0.6-0.1c0.5,0.1,1.1,0.1,1.6,0.2c0,0,0.1,0,0.1,0c0.1,0,0.1-0.1,0.1-0.1
	c0-0.1-0.1-0.2-0.1-0.2c-0.1,0-0.2,0-0.2,0c-0.2,0-0.5,0-0.7,0c-0.4,0-0.7-0.1-1.1-0.2c-0.1-0.8-0.1-1.5-0.2-2.2
	c0-0.6-0.1-1.3-0.1-1.9c0-1.2,0-2.5,0-3.7c0-0.4,0-0.8,0-1.1c0-0.4,0-0.7,0-1.1c0.1,0,0.2,0,0.3,0c0.3,0.1,0.7,0.1,1,0.2
	c0.1,0,0.2,0,0.3-0.1c0-0.2-0.2-0.2-0.4-0.2c-0.5,0-0.9-0.1-1.4-0.3c0-0.2,0-0.4,0-0.6c0-0.7,0.1-1.4,0.1-2.1
	c0.1-0.7,0.2-1.5,0.2-2.2c0.1-0.4,0.1-0.9,0.2-1.3c0.1-1.1,0.1-2.2,0.2-3.3c0-0.8,0.1-1.6,0.2-2.4c0-0.4,0.1-0.7,0.3-1.1
	c0.5-0.1,1.3-0.1,2.1,0.1C46.9,85.7,46.8,85.5,46.4,85.5z M28.2,118.6c0-0.4,0-0.7,0-1.1c0-0.5,0-1,0-1.5c0-0.3-0.1-0.3-0.4-0.3
	c0,0,0,0.1,0,0.1c0,0.6,0,1.1,0,1.7c0,0.1,0,0.3-0.1,0.4c-0.1-0.1-0.1-0.2-0.2-0.3c-0.1-0.3-0.3-0.5-0.4-0.8
	c-0.1-0.2-0.2-0.4-0.1-0.6c0-0.1,0-0.2,0.1-0.4c0.1-0.3,0-0.4-0.4-0.3c-0.1,0.2,0.1,0.5-0.2,0.5c0,0.2,0.1,0.4,0.1,0.5
	c0,0.6-0.1,1.1-0.1,1.7c0,0.1,0,0.2,0,0.3c0,0.1,0.2,0.3,0.3,0.3c0.2,0,0.1-0.2,0.1-0.3c0-0.4,0-0.8,0-1.2c0-0.1,0-0.1,0.1-0.2
	c0.2,0.4,0.5,0.7,0.6,1.1c0.1,0.2,0.2,0.4,0.2,0.6c0,0,0,0,0,0.1c0.1,0.1,0.2,0.2,0.3,0.1c0.1-0.1,0.1-0.2,0.1-0.4
	C28.2,118.7,28.2,118.6,28.2,118.6z M25.7,115.7c-0.1,0-0.2,0-0.2,0c0,0.4-0.1,0.7-0.1,1c-0.1,0.8-0.1,1.5-0.2,2.3
	c0,0.2,0,0.3,0.2,0.3c0.1,0.1,0.2,0,0.2-0.2c0-0.1,0-0.2,0-0.3c0-0.5,0-0.9,0.1-1.4c0-0.5,0.1-1,0.1-1.4
	C25.9,115.8,25.8,115.8,25.7,115.7z M31.8,111c0,0.1,0.1,0.2,0.2,0.3c0.1,0,0.3,0.1,0.3-0.1c-0.1-0.2-0.1-0.4-0.2-0.6
	c-0.1-0.5-0.2-0.9-0.4-1.4c-0.2-0.6-0.4-1.2-0.6-1.8c-0.3-1.1-0.7-2.1-1-3.1c-0.5-1.3-0.9-2.5-1.4-3.8c-0.3-0.9-0.7-1.7-1.1-2.6
	c-0.2-0.4-0.4-0.9-0.5-1.3c-0.4-1.3-0.7-2.7-0.9-4c-0.1-0.4-0.1-0.8-0.1-1.3c0-0.4,0-0.7,0.3-1c0.5-0.5,0.9-1,1.4-1.5
	c0.2-0.2,0.4-0.5,0.6-0.7c0.3-0.3,0.6-0.7,0.8-1.1c0.2-0.6,0.2-1.2-0.1-1.7c-0.2-0.3-0.4-0.6-0.6-0.8c-0.1-0.1-0.3-0.3-0.5-0.3
	c-0.3-0.1-0.7-0.2-1-0.3c-0.2,0.3-0.4,0.5-0.5,0.8c-0.1,0.4-0.2,0.7-0.3,1c-0.1,0.4-0.3,0.7-0.3,1.1c-0.1,0.7-0.3,1.3-0.5,2
	c-0.1,0.5-0.2,1.1-0.3,1.6c-0.1,0.6-0.1,1.2-0.2,1.7c-0.1,0.4-0.2,0.9-0.2,1.3c-0.1,0.7-0.2,1.3-0.3,2c-0.1,0.5-0.2,1-0.2,1.5
	c-0.1,0.5-0.1,1-0.1,1.4c-0.1,0.8-0.1,1.7-0.2,2.5c0,1-0.1,2.1-0.1,3.1c0,0.4,0,0.9,0,1.3c0,0.7,0.1,1.4,0.1,2.1
	c0,1.1,0.2,2.1,0.3,3.2c0,0.2,0.1,0.4,0.2,0.6c0.2,0,0.3,0,0.5,0c0.1,0,0.2-0.1,0.2-0.2c0-0.3-0.1-0.5-0.1-0.8
	c-0.1-0.4-0.2-0.8-0.2-1.3c0-0.3,0.1-0.7,0-1c0,0,0,0,0-0.1c0-0.4,0-0.8,0-1.2c0-0.1,0-0.2,0-0.3c0-0.2,0.1-0.4,0.1-0.6
	c0-0.3,0-0.6,0-0.9c0.1-0.4,0.1-0.8,0.1-1.2c0-0.2,0-0.3,0.1-0.5c0.1-0.6,0.1-1.2,0.2-1.9c0-0.4,0-0.8-0.1-1.1
	c0-0.6-0.1-1.1,0.1-1.7c0.1-0.4,0.1-0.7,0.2-1.1c0.1-0.7,0.1-1.5,0.2-2.2c0-0.4,0.1-0.8,0.1-1.2c0-0.3,0.1-0.6,0.1-0.9
	c0,0,0.1,0,0.1,0c0,0.2,0.1,0.3,0.1,0.5c0.2,1.2,0.5,2.3,0.9,3.4c0.2,0.5,0.5,1,0.6,1.5c0.4,1,0.7,1.9,1.1,2.9c0.4,1,0.7,2,1.1,3.1
	c0.2,0.4,0.3,0.8,0.5,1.2c0.4,1.1,0.7,2.2,1.1,3.3C31.6,109.9,31.8,110.4,31.8,111z M27.6,85.1c0.7,0.3,0.9,0.8,0.7,1.5
	c-0.2,0.7-0.7,1.3-1.2,1.9c0,0-0.1,0.1-0.1,0.2c-0.2,0.2-0.3,0.5-0.6,0.7C26.2,88.7,26.8,85.6,27.6,85.1z M35.9,108.1
	c0.1,0.5,0.3,1,0.6,1.5c0.3,0.4,0.5,0.5,1,0.3c0,0,0.1,0,0.1,0c0.1,0,0.1-0.1,0.3-0.2c0.5,0.1,1.1,0.2,1.7,0.1
	c0-0.2-0.1-0.3-0.3-0.3c-0.6,0.1-1.2-0.1-1.8-0.2c-0.1-0.5-0.2-0.9-0.3-1.4c-0.1-0.4-0.1-0.8-0.2-1.2c-0.1-0.7-0.2-1.3-0.4-2
	c0-0.2,0-0.3-0.1-0.5c-0.1-0.4-0.2-0.8-0.2-1.3c-0.1-0.8-0.2-1.5-0.3-2.3c0-0.1,0-0.3,0-0.5c0.2,0,0.4,0,0.6,0
	c0.2,0,0.4,0.1,0.6,0.1c0.1,0,0.1-0.1,0.2-0.1c0-0.1-0.1-0.2-0.1-0.2c-0.1,0-0.2,0-0.3-0.1c-0.3,0-0.5-0.1-0.8-0.1
	c-0.2,0-0.3-0.1-0.3-0.3c0-0.2,0-0.4,0-0.6c-0.1-0.8-0.2-1.7-0.3-2.5c-0.1-1.4-0.2-2.8-0.1-4.2c0-1.1,0-2.1,0-3.2
	c0-0.3,0.1-0.6,0.2-0.8c0-0.1,0.1-0.2,0.2-0.2c0.5,0,1-0.1,1.4-0.1c0.1,0,0.2,0,0.3-0.1c0-0.1,0-0.3-0.1-0.3
	c-0.1-0.1-0.2-0.1-0.4-0.1c-0.2,0.1-0.3,0.1-0.5,0.1c-0.5,0.1-1,0.1-1.5,0.1c-0.1,0-0.1,0-0.2,0.1c-0.1,0.4-0.2,0.8-0.3,1.2
	c-0.1,0.4-0.1,0.9-0.2,1.4c-0.1,0.5-0.1,1-0.1,1.6c0,0.5,0,0.9-0.1,1.4c0,0.8-0.1,1.7-0.1,2.5c0,0.9,0.1,1.8,0.2,2.7
	c0.1,0.6,0.2,1.2,0.3,1.8c0.1,0.8,0.2,1.5,0.3,2.3c0.1,0.9,0.3,1.9,0.4,2.8C35.6,106.2,35.8,107.1,35.9,108.1z M32.6,115.4
	c0,0.1,0,0.2,0,0.3c-0.1,0.7-0.1,1.5-0.3,2.2c-0.1,0.4-0.2,0.7-0.3,1c0,0.1-0.1,0.3-0.3,0.3c-0.2,0-0.5,0.1-0.6-0.2
	c0-0.1-0.1-0.1-0.2-0.1c-0.1,0.1-0.2,0.1-0.3,0.2c0.1,0.1,0.2,0.2,0.2,0.2c0.2,0.1,0.5,0.2,0.8,0.2c0.4,0,0.6-0.1,0.7-0.5
	c0.2-0.5,0.3-1,0.4-1.6c0,0,0-0.1,0-0.1c0.1-0.5,0.1-1.1,0.2-1.6C33,115.4,32.9,115.3,32.6,115.4z M34.4,117.4c0-0.5-0.2-1-0.3-1.5
	c0-0.1-0.2-0.2-0.3-0.2c-0.1,0-0.2,0.1-0.2,0.2c-0.1,0.6-0.3,1.1-0.4,1.7c0,0.1-0.1,0.2-0.2,0.3c0,0.1,0.1,0.3,0,0.4
	c0,0.2-0.1,0.5-0.1,0.7c0,0.2,0,0.3,0.2,0.3c0.1,0,0.2,0,0.2-0.1c0-0.2,0-0.4,0-0.5c0-0.4,0.1-0.5,0.5-0.4c0.2,0,0.3,0.1,0.3,0.3
	c0,0.2,0,0.3,0.1,0.5c0,0.3,0.1,0.3,0.4,0.3c0-0.1,0-0.2,0-0.2C34.6,118.5,34.4,117.9,34.4,117.4z M33.6,117.8
	c0-0.4,0.2-0.8,0.3-1.1c0.1,0.4,0.2,0.7,0.2,1.1C33.9,117.8,33.8,117.8,33.6,117.8z M41,63.5c-0.3-0.1-0.7-0.2-1-0.3
	c-0.2,0-0.4,0-0.6-0.1c-0.3,0-0.6-0.1-0.9-0.1c-1.2-0.1-2.4-0.2-3.6-0.2c-0.6,0-1.1,0-1.7,0c-0.2,0-0.4,0-0.5,0c-0.5,0-1-0.1-1.5,0
	c-0.2,0-0.4,0-0.6,0c-0.2,0-0.3,0-0.5,0c-0.6,0.1-1.3,0.1-1.9,0.3c-0.8,0.1-1.5,0.3-2.3,0.5c-0.4,0.1-0.8,0.4-1.1,0.6
	c-0.1,0.1-0.3,0.3-0.3,0.5c-0.1,0.4,0,0.7,0.3,1c0.3,0.3,0.7,0.4,1.1,0.5c0.5,0.1,1,0.2,1.6,0.2c0.6,0.1,1.2,0.1,1.8,0.2
	c0.2,0,0.5,0.1,0.7,0.1c0.6,0.1,1.2,0.1,1.9,0.2c0.3,0,0.6,0.1,0.9,0.1c0.4,0,0.8,0.1,1.2,0.1c0.1,0,0.2,0,0.4,0
	c0.5,0,1,0.1,1.4,0.2c0.6,0,1.1,0.1,1.7,0.2c0.5,0.1,1.1,0.2,1.6,0.3c0.4,0.1,0.7,0.2,1.1,0.1c0.1,0,0.2,0,0.4,0
	c0.1-0.1,0.3-0.1,0.4-0.2c0.3-0.1,0.5-0.2,0.7-0.4c0.7-0.4,1.2-1,1.6-1.7c0.1-0.1,0.1-0.3,0-0.4c-0.2-0.3-0.4-0.5-0.5-0.8
	C42.2,64.1,41.6,63.8,41,63.5z M38.6,55.8c-0.3,0-0.6,0.1-0.9,0.1c-0.5,0.1-1,0.2-1.5,0.3c-0.4,0.1-0.8,0.2-1.1,0.3
	c-0.6,0.2-1.2,0.3-1.8,0.5c-0.5,0.1-1,0.3-1.5,0.5c-0.2,0.1-0.4,0.1-0.6,0.2c-0.9,0.4-1.8,0.7-2.6,1.1c-0.4,0.2-0.7,0.4-1.1,0.5
	c-0.5,0.2-1,0.5-1.5,0.7c-0.2,0.1-0.5,0.3-0.7,0.4c-0.2,0.1-0.4,0.3-0.6,0.5c-0.2,0.2-0.3,0.6-0.2,0.9c0.1,0.2,0.2,0.4,0.3,0.6
	c0.1,0.2,0.3,0.2,0.5,0.2c0.5,0,0.9,0.2,1.4,0c0.6,0,1.2-0.1,1.8-0.1c0.1,0,0.2,0,0.2,0c0.2,0,0.5-0.1,0.7-0.1c0.4,0,0.9,0,1.3,0
	c0.1,0,0.3-0.1,0.4-0.1c0.3,0,0.6,0,0.9-0.1c0,0,0.1,0,0.1,0c0.2,0,0.3,0,0.5,0c0.2,0,0.3,0,0.5,0c0.1,0,0.2,0,0.3,0
	c0.6-0.1,1.2-0.1,1.8-0.2c0.3,0,0.6,0,0.9,0c0.3,0,0.6-0.1,0.9-0.1c0.2,0,0.4,0,0.6,0c0.7-0.1,1.3-0.2,2-0.2
	c0.6-0.1,1.1-0.2,1.7-0.3c0.5-0.1,0.8-0.5,1.1-0.9c0,0,0,0,0-0.1c0.2-0.5,0.3-1,0.3-1.6c0-0.3-0.1-0.6-0.2-0.9
	c0-0.1-0.1-0.3-0.1-0.4c0-0.2-0.1-0.4-0.3-0.5c-0.2-0.2-0.4-0.3-0.6-0.4c-0.2-0.1-0.3-0.1-0.5-0.2c-0.3-0.2-0.6-0.3-0.9-0.4
	C39.7,55.9,39.2,55.8,38.6,55.8z M20.6,76c0.7-0.1,1.4-0.3,2.1-0.4c0,0,0.1,0,0.1,0c0.2,0,0.5-0.1,0.7-0.1c1-0.1,2.1-0.3,3.1-0.3
	c0,0,0.1,0,0.1,0c0.3-0.1,0.6,0,0.9-0.1c0.3,0,0.6-0.1,0.9-0.1c0.5,0,1-0.1,1.5,0c0.1,0,0.1,0,0.2,0c0.3,0,0.6-0.1,0.9,0
	c0.7,0.1,1.4,0,2.2,0.1c0.4,0.1,0.8,0,1.2,0.1c0.7,0.1,1.4,0.1,2.1,0.3c0.3,0.1,0.7,0.1,1,0.2c0.4,0,0.9,0.1,1.3,0.2
	c0.8,0.2,1.6,0.3,2.4,0.6c0.4,0.1,0.9,0.2,1.3,0.3c0.6,0.2,1.2,0.4,1.8,0.6c0.5,0.2,0.9,0.3,1.4,0.4c0.2,0.1,0.4,0,0.6-0.2
	c0.4-0.4,0.4-0.8,0.3-1.3c-0.2-0.4-0.4-0.9-0.7-1.2c-0.2-0.3-0.5-0.6-0.8-0.8c-0.3-0.2-0.6-0.5-0.9-0.7c-0.4-0.3-0.9-0.4-1.3-0.5
	c-0.4-0.1-0.6,0.1-0.5,0.6c-0.1-0.1-0.2-0.2-0.2-0.3c-0.2-0.3-0.3-0.6-0.5-0.9c-0.1-0.2-0.3-0.4-0.6-0.5c-0.2-0.1-0.4-0.1-0.6-0.2
	c-0.9-0.5-1.8-0.9-2.6-1.4c-0.2-0.1-0.3-0.2-0.5-0.2c-0.6-0.3-1.2-0.7-1.8-1c-0.4-0.2-0.8-0.4-1.2-0.7c-0.3-0.2-0.7-0.3-1.1-0.3
	c-0.1,0-0.2,0-0.3,0c-0.5,0-1.1,0-1.6-0.1c-0.2,0.1-0.5,0-0.7,0c-0.5-0.1-1.1-0.1-1.7-0.2c-0.4,0-0.8-0.1-1.2-0.1
	c-0.4-0.1-0.8-0.1-1.2-0.2c-0.3-0.1-0.6-0.2-0.9-0.2c-0.4-0.1-0.8-0.3-1.1-0.4c-0.7-0.3-1.1-0.9-1.3-1.7c-0.1-0.3,0-0.6,0.3-0.8
	c0.2-0.2,0.5-0.5,0.8-0.6c0.1,0,0.2-0.1,0.3-0.2c0-0.1,0-0.2-0.1-0.3c0-0.3-0.2-0.4-0.5-0.5c-0.4-0.2-0.8-0.5-1-1c0-0.1,0-0.2,0-0.3
	c0.1-0.3,0.2-0.6,0.5-0.9c0.5-0.5,1-0.8,1.6-1.2c0.6-0.4,1.3-0.7,1.9-1c0.5-0.2,1-0.4,1.5-0.6c0.8-0.3,1.6-0.6,2.4-0.9
	c0.3-0.1,0.6-0.2,0.9-0.3c0.5-0.1,1-0.3,1.4-0.4c0.5-0.1,1-0.3,1.5-0.5c0.3-0.1,0.5-0.1,0.8-0.2c0.7-0.3,1.5-0.4,2.2-0.6
	c0,0,0.1,0,0.1,0c0.1,0,0.2,0,0.3-0.1c0.1-0.1,0.2-0.2,0.3-0.4c0.3-0.4,0.5-0.9,0.8-1.4c0.3-0.6,0.6-1.2,0.9-1.8
	c0.1-0.2,0.1-0.4,0-0.6c-0.1-0.2-0.2-0.3-0.3-0.5c-0.2-0.3-0.4-0.6-0.5-0.9c-0.1-0.2-0.2-0.3-0.3-0.5c-0.3-0.4-0.6-0.9-0.9-1.3
	c-0.4-0.5-0.7-1.1-1.2-1.6c-0.4-0.5-0.9-1.1-1.4-1.5c-0.3-0.2-0.5-0.4-0.8-0.6c-0.1,0-0.2-0.1-0.2-0.1c-0.3,0-0.5,0-0.8,0
	c-0.3,0-0.5,0-0.8,0.1c-0.3,0-0.7,0.1-1,0.1c-0.4,0-0.7,0.1-1.1,0.1c-0.2,0-0.5,0-0.7,0.1c-0.5,0.1-1.1,0.1-1.6,0.2
	c-0.1,0-0.3,0.1-0.4,0.1c-0.5,0.1-1.1,0.1-1.6,0.2c-0.2,0-0.3,0.1-0.5,0.1c-0.4,0.1-0.7,0.1-1.1,0.1c-0.3,0-0.6,0.1-0.9,0.1
	c-0.1,0-0.2,0-0.3,0c-0.3,0-0.5,0.1-0.8,0.1c-0.7-0.1-1.3-0.1-2-0.3c-0.6-0.2-1.2-0.3-1.8-0.4c-0.2-0.2-0.4-0.1-0.6,0.1
	c-0.1,0.1-0.1,0.1-0.2,0.2c0-0.1-0.1-0.2-0.1-0.3c0-0.4-0.1-0.7-0.1-1.1c0-0.4-0.1-0.9-0.1-1.3c0-0.5-0.1-1-0.1-1.5
	c0-0.2,0-0.3,0-0.5c0-0.4-0.1-0.9-0.1-1.3c0-0.4,0-0.8,0-1.2c0-0.1,0-0.3,0-0.4c0-0.2,0-0.5,0-0.7c0-0.1,0.1-0.2,0.2-0.2
	c0.1,0,0.2-0.1,0.3-0.1c0.1,0,0.3-0.1,0.3-0.2c0-0.1,0-0.2-0.1-0.2c0,0-0.1,0-0.1,0c-0.4,0.1-0.9,0.1-1.3,0.2c-0.2,0-0.4,0.1-0.7,0
	c-0.7-0.1-1.4-0.1-2-0.2c-0.7-0.1-1.4-0.3-2-0.4c-1-0.2-2-0.6-3-1c-0.8-0.4-1.6-1-2.2-1.6c-0.9-0.9-1.7-1.9-2.2-3
	c0-0.1-0.1-0.2-0.1-0.3c-0.2-0.4-0.5-0.8-0.6-1.3c0-0.1-0.1-0.2-0.1-0.3c-0.1-0.3-0.2-0.5-0.3-0.8c-0.1-0.7-0.4-1.3-0.5-2
	c-0.1-0.5-0.2-1-0.3-1.5c-0.1-0.4-0.1-0.8-0.1-1.2C3.1,21.5,3.1,21,3,20.6c-0.1-0.3,0-0.6-0.1-0.9c-0.1-0.4-0.1-0.8-0.1-1.2
	c0-0.1,0-0.2,0-0.3c0-0.3-0.1-0.6-0.1-0.9c0-0.2,0-0.3-0.1-0.5c0-0.2,0-0.3-0.1-0.5c0-0.5-0.1-1-0.1-1.6c0,0,0-0.1,0-0.1
	c-0.1-0.5-0.1-1-0.1-1.4c0-0.2,0-0.3,0-0.5c-0.1-0.6,0-1.1-0.1-1.7c0,0,0-0.1,0-0.2c0-0.2,0.1-0.4,0.1-0.6c0-0.7,0-1.5,0-2.2
	c0-0.9,0-0.9,0-1.7c0,0,0.1-0.3,0.2-0.4c0-0.2,0-0.3,0-0.5C2.3,5.4,2,5.1,2,5.1l-0.3,0L1.5,5.4l0.2,0.5l0,0.2c0,1.2,0,1.6,0,2.8
	c0,0.3,0,0.6,0,0.9c-0.1,0.5,0,0.9-0.1,1.4c0,0.6,0,1.2,0,1.8c0,0.2,0,0.5,0,0.7c0,0.2,0,0.4,0.1,0.6c0,0.2,0,0.4,0.1,0.6
	c0,0,0,0.1,0,0.2c0.1,1.5,0.3,2.9,0.5,4.3c0,0.2,0.1,0.4,0.1,0.6c0.1,0.8,0.2,1.6,0.3,2.4c0.1,0.5,0.1,1,0.2,1.5
	c0.1,0.5,0.2,1.1,0.3,1.6c0.1,0.2,0.1,0.4,0.2,0.7c0.1,0.4,0.2,0.8,0.4,1.2c0.1,0.2,0.1,0.3,0.2,0.5c0.1,0.4,0.3,0.8,0.5,1.2
	c0.1,0.1,0.1,0.2,0.1,0.3c0.3,0.7,0.7,1.3,1.1,1.9c0.4,0.5,0.8,1,1.2,1.4c0.7,0.7,1.5,1.3,2.4,1.7c1,0.5,2.1,0.9,3.2,1.1
	c0.2,0,0.3,0.1,0.5,0.1c0.9,0.2,1.9,0.3,2.8,0.4c0,0,0,0,0,0c0,0,0,0,0.1,0c0,0,0,0,0,0c0,0,0.1,0,0.1,0c0.5,0.1,0.6,0.3,1,0.5
	c0.4,0.2,0.4,0.6,0.5,0.9c0,0,0,0.1,0,0.1c0,0,0,0,0,0l0,0c0,0.4,0,0.9,0,1.3c0,1,0.1,1.9,0.2,2.9c0.1,0.9,0.1,1.9,0.2,2.8
	c-0.2,0-0.3-0.1-0.5-0.1c-0.3,0-0.6,0-0.9,0.1c-0.2,0.1-0.4,0.1-0.5,0.2c-0.5,0.2-1,0.5-1.5,0.7c-0.3,0.1-0.5,0.3-0.8,0.4
	C12.8,46,12,46,11.2,46.1c-0.5,0.1-1,0.1-1.5,0.2c-0.6,0.1-1.1,0.2-1.6,0.4c-0.3,0.1-0.6,0.4-0.7,0.7c-0.1,0.3-0.3,0.7-0.4,1
	c-0.3,0.8-0.7,1.6-1,2.5c-0.2,0.5-0.4,0.9-0.6,1.4c-0.5,1.3-1.1,2.7-1.6,4c-0.2,0.5-0.3,1-0.1,1.5c0,0,0,0.1,0,0.1
	c-0.1,0.2,0,0.3,0.2,0.5c0.3,0.3,0.5,0.6,0.8,0.9c0.5,0.5,1,1,1.5,1.4c0,0,0,0,0,0c0.4,0.4,2.1,2.9,0,4.9c-0.4,0.4-0.9,0.8-1.3,1.1
	c-0.5,0.4-1,0.7-1.5,1c-0.2,0.2-0.4,0.3-0.6,0.5c-0.6,0.4-1.3,0.7-1.9,1c-0.1,0.1-0.3,0.1-0.5,0.2C0,69.5,0,69.6,0,69.8
	c0,0.2,0,0.3,0.1,0.5c0.3,0.5,0.7,1,1,1.5c0.5,0.7,1.2,1.4,1.8,2c0.5,0.5,1.1,1,1.6,1.5c0.2,0.2,0.5,0.5,0.8,0.7
	c0.9,0.7,1.9,1.3,2.8,1.9c0.5,0.3,1,0.5,1.5,0.6c0.2,0.1,0.4,0.1,0.6,0.2c0.8,0.3,1.7,0.3,2.6,0.3c0.3,0,0.7,0,0.9-0.3
	c0,0,0.1,0,0.1-0.1c0.7-0.4,1.4-0.8,2-1.1c0.3-0.2,0.6-0.3,0.9-0.4c0.7-0.2,1.3-0.4,2-0.6C19.4,76.3,20,76.1,20.6,76z M42.7,73.9
	C42.7,73.9,42.7,73.9,42.7,73.9C42.7,73.9,42.7,73.8,42.7,73.9C42.7,73.8,42.7,73.8,42.7,73.9z M42.6,73.7
	C42.6,73.8,42.6,73.8,42.6,73.7C42.6,73.8,42.6,73.8,42.6,73.7C42.6,73.8,42.6,73.7,42.6,73.7C42.6,73.7,42.6,73.7,42.6,73.7z
	 M12.9,49.3c0.1,0,0.1,0.1,0.2,0.1c-0.2,0.1-0.4,0-0.5,0c-0.3-0.1-0.5-0.3-0.7-0.5c0,0-0.1-0.1-0.1-0.2
	C12.1,48.9,12.5,49.1,12.9,49.3z M15.3,54.5c-1.2-1.2-2.6-2.2-4.1-3.1c0-0.1,0-0.1,0.1-0.1c0.4-0.3,0.7-0.5,1.1-0.8
	c0.1-0.1,0.1-0.1,0.2-0.1c0.3-0.2,0.3-0.2,0.7-0.3c0.1-0.2,0.1-0.4-0.1-0.6c0.3,0,0.6,0,1-0.1c1-0.1,1.9-0.5,2.7-1.2
	c0.2-0.2,0.4-0.5,0.6-0.8c0.2-0.3,0.4-0.6,0.6-1c0,0,0.1-0.1,0.1-0.2c0,0.1,0.1,0.2,0.1,0.2c0,0.4,0.1,0.8,0.1,1.2
	c0,0.4,0.1,0.7,0.1,1.1c0.1,0.7,0.1,1.3,0.2,2c0,0,0,0,0,0.1l0,0c0,0,0,0.2-0.2,0.2c0,0,0,0,0,0c-0.8,0-1.6,0.2-2.4,0.3
	c-0.6,0.1-1.1,0.1-1.7,0.2c-0.3,0-0.5,0.1-0.8,0.2c-0.2,0-0.3,0.2-0.3,0.3c0,0.1,0.2,0.3,0.4,0.2c0.2-0.1,0.5-0.1,0.7-0.2
	c0.5-0.1,1-0.2,1.6-0.2c0.2,0,0.4,0,0.6-0.1c0.4-0.1,0.8-0.1,1.3-0.2c0,0,0.1,0,0.1,0c0.7,0,1.4-0.2,2.1-0.2c0.2,0,0.3,0,0.5-0.1
	c0.4-0.1,0.7-0.1,1.1-0.1l0,0c0.1,0,0.4,0,0.6,0.1c0.2,0.1,0.4,0.2,0.4,0.2s0.4,0,0.6,0c0.2,0,0.4-0.1,0.4-0.1s0.2,0.1,0.3-0.1
	c0-0.1,0.1-0.2,0.1-0.2l0-0.1l0.1-0.1l-0.1-0.2l-0.1-0.1c0,0-0.1-0.1-0.1-0.1c-0.1,0-0.1-0.1-0.2-0.1c-0.1,0-0.3,0-0.3,0
	s-0.1,0-0.3,0.1c-0.2,0.1-0.5,0.1-0.7,0.1l0,0c-0.7,0-1.5,0.1-2.2,0.2c-0.1,0-0.2,0-0.2,0c-0.1,0-0.3-0.1-0.5-0.2
	c-0.2-0.1-0.3-0.4-0.3-0.6c0-0.2-0.1-0.4-0.1-0.7c0-0.4-0.1-0.8-0.2-1.1c-0.1-0.5-0.1-0.9-0.1-1.4c0.1-0.1,0.2,0,0.3,0.1
	c0.1,0.1,0.2,0.3,0.3,0.4c0,0,0.1,0.1,0.1,0.1c0.3,0.2,0.6,0.5,0.9,0.7c0,0,0.1,0,0.1,0c0.2,0.2,0.5,0.3,0.8,0.4
	c0.3,0.1,0.5,0.2,0.8,0.3c0.1,0,0.2,0,0.4,0.1c0.1,0,0.2,0,0.3,0c0.9,0.2,1.8,0.1,2.7,0c0.1,0,0.2,0,0.3,0c0.2,0,0.3,0,0.5,0
	c0.2,0,0.4-0.1,0.6-0.2c0.1,0,0.2-0.1,0.3-0.2c0,0,0,0,0,0c0,0,0,0,0,0c0,0,0,0.1,0,0.1c-0.1,0.1-0.2,0.1-0.4,0.2
	c-0.3,0.1-0.3,0.4-0.1,0.6c0.3,0.2,0.6,0.3,0.9,0.5c0.6,0.2,1.3,0.4,1.9,0.5c0.9,0.1,1.7,0.2,2.6,0.2c0,0,0.1,0,0.2,0
	C32,50.8,32,50.8,32,50.8c-0.6,0.2-1.1,0.5-1.6,0.7c-0.1,0-0.2,0.1-0.3,0.1c-0.5,0.2-0.9,0.4-1.4,0.6c-0.4,0.2-0.8,0.4-1.2,0.6
	c-0.9,0.5-1.8,0.9-2.8,1.4c-0.6,0.3-1.1,0.5-1.7,0.8c-0.1,0-0.2,0.1-0.3,0.1c-0.2,0-0.4,0.1-0.5,0.2C19.9,55,17.6,54.8,15.3,54.5z
	 M16.7,69.1C16.7,69.1,16.7,69,16.7,69.1c0-0.1,0-0.1,0-0.1C16.7,69,16.7,69,16.7,69.1C16.7,69,16.7,69.1,16.7,69.1z M17.9,63.7
	c-0.1,0.8-0.2,1.6-0.3,2.4c-0.1,0.5-0.2,1-0.4,1.5c-0.1,0.3-0.2,0.6-0.3,1c0,0.1-0.1,0.1-0.1,0.2c0,0,0,0-0.1,0
	c0.1-0.3,0.1-0.6,0.2-0.9c0.1-0.3,0.1-0.6,0.2-0.9c0.1-0.9,0.3-1.9,0.4-2.8c0-0.2,0-0.5,0-0.7c0.1-0.8,0.1-1.6,0.1-2.4
	c0-0.5-0.1-1-0.1-1.5c-0.1-0.5-0.2-0.9-0.3-1.4c0-0.2-0.1-0.3-0.2-0.5c0-0.1,0-0.2-0.1-0.3c0.1,0,0.1,0.1,0.2,0.1
	c0.3,0.7,0.5,1.5,0.7,2.3c0.1,0.6,0.2,1.3,0.2,1.9c0,0.6,0,1.1,0,1.7C17.9,63.3,17.9,63.5,17.9,63.7z M1.9,3.2
	C2,3.3,2.2,3.3,2.2,3.3h0.4c0,0,0.3-0.1,0.4-0.2c0.1-0.1,0.1-0.2,0.2-0.2c0,0,0,0,0,0c0.1,0,0.2-0.1,0.2-0.1l0,0
	c0.6-0.1,1.2-0.3,1.8-0.4C6.1,2.4,6.7,2.2,7.4,2c0.5-0.1,1-0.1,1.5-0.2c0.3,0,0.7-0.1,1-0.1c0.2,0,0.5-0.1,0.7-0.1
	c0.3,0,0.7-0.1,1-0.1c0.7-0.1,1.3-0.2,2-0.2c0.8-0.1,1.5-0.1,2.3-0.2c0.4,0,0.7,0,1.1-0.1c0.7-0.2,1.5-0.1,2.2-0.2
	c0.5-0.1,1-0.1,1.5-0.1c0.4,0,0.7-0.1,1.1-0.1c0.2,0.1,0.4,0,0.6,0c0.2,0,0.4,0,0.7,0c0.3,0,0.6-0.1,0.9-0.1c1.1,0,2.1-0.1,3.2,0
	c0,0,0.4,0.1,0.5,0.1c0.1,0,0.4,0.2,0.6,0.3c0.2,0.1,0.4,0.4,0.4,0.5C28.8,1.4,29,1.8,29,1.8c0,0.1,0,0.2,0,0.3c0,0.2,0,0.3,0,0.5
	c0,0.8,0,1.6,0,2.4c0,0.4,0,0.8,0,1.2c0,1,0,1.9,0,2.9c0,0.2,0,0.3,0,0.5c-0.1,0.1-0.2,0.1-0.3,0.2c-0.4,0.4-0.9,0.6-1.4,0.8
	c-0.5,0.2-1.1,0.3-1.6,0.3c-0.5,0.1-1,0.1-1.5,0.2c-0.6,0.1-1.2,0.1-1.9,0.2c-0.6,0-1.2,0.1-1.7,0.1c-0.3,0-0.6,0-1,0
	c-0.7,0-1.4,0.1-2.1,0.1c-1,0-2,0-3,0c-0.1,0-0.1,0-0.2,0c-0.5-0.1-1-0.1-1.4-0.1c-0.3,0-0.7,0-1,0c-0.9,0-1.8,0-2.6,0.2
	c-0.5,0.1-1.1,0.2-1.5,0.5c-0.2,0.1-0.3,0.2-0.5,0.2c-0.3,0-0.5,0.2-0.6,0.4c-0.2,0.2-0.3,0.4-0.5,0.5c-0.3,0.3-0.5,0.7-0.6,1.1
	c-0.1,0.3-0.1,0.6-0.2,0.9c-0.1,0.5-0.2,1-0.2,1.6c0,1,0.1,1.9,0.1,2.9c0,1.1,0.1,2.2,0.3,3.2c0.1,0.5,0.2,1,0.3,1.6
	c0.1,0.3,0.2,0.6,0.2,0.9c0.1,0.5,0.2,1,0.4,1.4C6.8,27.3,7,28,7.3,28.6c0.3,0.7,0.7,1.3,1.2,1.9c0.6,0.8,1.4,1.3,2.3,1.8
	c0.6,0.3,1.2,0.6,1.8,0.9c0.4,0.2,0.9,0.3,1.3,0.4c0.6,0.1,1.1,0.2,1.7,0.3c0.7,0.2,1.4,0.2,2.1,0.2c0.6,0,1.1,0,1.7,0
	c0.9,0,1.9-0.1,2.8-0.2c0.1,0,0.3-0.1,0.4-0.1c0.7-0.1,1.3-0.2,2-0.5c0.1,0,0.1,0,0.2,0c-0.3,0.3-0.6,0.5-0.8,0.7
	c-0.3,0.2-0.6,0.4-1,0.6c-0.4,0.2-0.9,0.5-1.4,0.7c-0.3,0.1-0.6,0.2-0.8,0.3c-0.1,0-0.3,0.1-0.3,0.3c0.2,0.2,0.3,0.2,0.5,0.1
	c0.4-0.1,0.7-0.3,1.1-0.4c0.2-0.1,0.3-0.2,0.4-0.2c0.6-0.3,1.3-0.7,1.9-1c0.1,0,0.1-0.1,0.2-0.2c0.1-0.1,0.2-0.1,0.3-0.2
	c0.3-0.2,0.6-0.4,0.9-0.7c0.1-0.1,0.2-0.2,0.3-0.4c0.4-0.5,0.9-0.8,1.2-1.3c0.4-0.5,0.7-1,1-1.5c0.2-0.3,0.4-0.7,0.5-1
	c0.1-0.3,0.2-0.7,0.3-1c0.1-0.5,0.3-1,0.4-1.5c0.1-0.7,0.3-1.4,0.4-2.1c0-0.2,0.1-0.5,0.1-0.7c0-0.2,0-0.3,0.1-0.5
	c0-0.2,0-0.3,0-0.5c0-0.2,0.1-0.3,0.1-0.4c0-0.3,0-0.7,0-1c0-0.2,0-0.5,0-0.7c0-0.4,0-0.7,0-1.1c0-0.4,0-0.8,0-1.2
	c0-0.5,0-1-0.1-1.4c-0.1-0.7,0-1.5-0.1-2.2c0.1-0.2,0-0.4,0-0.7c0.1-0.6,0-1.2,0-1.8c-0.1-0.5,0-1-0.1-1.5c-0.1-0.7-0.1-1.4-0.1-2.2
	c0-0.8,0-1.6,0-2.4c0-0.2,0-0.4,0-0.6c0-0.4,0-0.8,0-1.2c0-0.1,0-0.1,0-0.2c0-0.4,0-0.8,0-1.2l0-0.1L29.5,2l-0.1-0.4
	c0,0-0.1-0.3-0.1-0.4c0-0.1-0.3-0.4-0.5-0.6c-0.1-0.1-0.1-0.2-0.3-0.3c-0.1-0.1-0.5-0.2-0.7-0.3C27.6,0,26.9,0,26.7,0
	c-0.1,0-0.2,0-0.2,0c-0.7,0-1.3,0-2,0.1c-0.8,0-1.6,0.1-2.4,0.2c-0.3,0-0.6,0-1,0c-0.7,0.1-1.4,0.1-2.1,0.2
	c-0.8,0.1-1.5,0.2-2.3,0.2c-0.2,0-0.5,0.1-0.7,0.1c-0.4,0-0.9,0-1.3,0.1c-0.2,0-0.3,0-0.5,0C13.7,1,13.4,1,13,1.1
	c-1,0.1-1.9,0.2-2.9,0.3c-0.3,0-0.7,0.1-1,0.1c-0.4,0-0.9,0.1-1.3,0.2C7.4,1.7,6.9,1.7,6.5,1.8C5.9,1.9,5.4,2.1,4.8,2.2
	C4.5,2.2,4.2,2.3,3.9,2.3C3.6,2.4,3.2,2.5,2.8,2.6c-0.1,0-0.4-0.1-0.4-0.1L2.1,2.4l-0.3,0L1.6,2.7L1.7,3C1.7,3,1.7,3.2,1.9,3.2z"/>
</svg>
