<?xml version="1.0" encoding="utf-8"?>
<!-- Generator: Adobe Illustrator 26.5.2, SVG Export Plug-In . SVG Version: 6.00 Build 0)  -->
<svg version="1.1" id="_レイヤー_2" xmlns="http://www.w3.org/2000/svg" xmlns:xlink="http://www.w3.org/1999/xlink" x="0px"
	 y="0px" viewBox="0 0 28 33.1" style="enable-background:new 0 0 28 33.1;" xml:space="preserve">
<style type="text/css">
	.st0{fill:#646464;}
	.st1{fill:#FFFFFF;}
</style>
<g id="_レイヤー_3">
	<g>
		<path class="st0" d="M14,33.1c-7.7,0-14-6.3-14-14s6.3-14,14-14s14,6.3,14,14S21.7,33.1,14,33.1z"/>
		<path class="st1" d="M16.9,26h-5.8c-2.2,0-4.1-1.8-4.1-4.1v-5.8c0-2.2,1.8-4.1,4.1-4.1h5.8c2.2,0,4.1,1.8,4.1,4.1V22
			C20.9,24.2,19.1,26,16.9,26z M11.1,13.4c-1.5,0-2.8,1.2-2.8,2.8V22c0,1.5,1.2,2.8,2.8,2.8h5.8c1.5,0,2.8-1.2,2.8-2.8v-5.8
			c0-1.5-1.2-2.8-2.8-2.8H11.1z"/>
		<circle class="st1" cx="17.7" cy="15.4" r="0.9"/>
		<path class="st1" d="M14,22.7c-2,0-3.6-1.6-3.6-3.6s1.6-3.6,3.6-3.6s3.6,1.6,3.6,3.6S16,22.7,14,22.7z M14,16.8
			c-1.3,0-2.3,1-2.3,2.3s1,2.3,2.3,2.3s2.3-1,2.3-2.3C16.3,17.8,15.3,16.8,14,16.8z"/>
	</g>
</g>
</svg>
