<?xml version="1.0" encoding="UTF-8"?><svg id="_レイヤー_2" xmlns="http://www.w3.org/2000/svg" width="25" height="25" viewBox="0 0 25 25"><defs><style>.cls-1{fill:#fff;}</style></defs><g id="_レイヤー_3"><path class="cls-1" d="M12.5,0C5.6,0,0,5.6,0,12.5s5.6,12.5,12.5,12.5,12.51-5.61,12.5-12.5C25,5.6,19.4,0,12.5,0Zm6.2,15.07c0,2-1.62,3.62-3.62,3.62h-5.14c-2,0-3.62-1.63-3.62-3.62v-5.14c0-2,1.62-3.62,3.62-3.62h5.14c2,0,3.62,1.63,3.62,3.62v5.14Zm-3.62-7.61h-5.14c-1.36,0-2.46,1.11-2.46,2.46v5.14c0,1.36,1.11,2.46,2.46,2.46h5.14c1.36,0,2.46-1.11,2.46-2.46v-5.14c0-1.36-1.11-2.46-2.46-2.46Zm-2.57,8.24c-1.77,0-3.21-1.44-3.21-3.2s1.44-3.21,3.21-3.21,3.21,1.44,3.21,3.21-1.44,3.2-3.21,3.2Zm3.31-5.74c-.42,0-.77-.34-.77-.77s.34-.77,.77-.77,.77,.34,.77,.77-.34,.77-.77,.77Zm-3.31,.49c-1.12,0-2.04,.92-2.04,2.04s.92,2.04,2.04,2.04,2.04-.92,2.04-2.04c0-1.13-.91-2.04-2.04-2.04Z"/></g></svg>